<svg xmlns="http://www.w3.org/2000/svg" xmlns:xlink="http://www.w3.org/1999/xlink" width="22.6337cm" height="16.181cm" viewBox="0 0 641.5852 458.6738">
  <defs>
    <clipPath id="bb8fb468-065e-4611-9993-d93e694b8062" transform="translate(-489.2393 -616.7695)">
      <rect x="536.8863" y="697.9296" width="550.223" height="296.3604" fill="none"/>
    </clipPath>
    <clipPath id="e33d78c8-c397-4491-a8ed-75d3293ce36f" transform="translate(-489.2393 -616.7695)">
      <path d="M536.8863,985.8085s84.418-61.2119,206.487-130.8447q1.6215-.9243,3.25-1.8506c13.1-4.0176,25.124-18.0722,40.304-22.4355q1.728-.94,3.462-1.8819,2.4735-1.3417,4.969-2.6767c17.46-.751,32.765-3.7315,46.084-24.08,1.592-.959,3.332-1.85,5.082-2.7383q5.1285-2.6045,10.303-5.1992,2.586-1.2964,5.184-2.5908c16.706-9.0957,28.73-23.15,47.57-22.9414q2.6848-1.251,5.3769-2.4961,2.6085-1.2056,5.228-2.3994c20.529,1.6465,35.053,3.8379,47.727-20.82a45.0738,45.0738,0,0,1,5.248-2.4756q2.556-1.0752,5.117-2.14c13.811-18.0625,33.177-15.1406,51.577-20.3808q2.601-.9728,5.195-1.93,25.962-9.5874,52.0621-18.001s-19.6412,8.7158-52.1431,23.9238c-1.204.5635-2.426,1.1358-3.686,1.6612-24.669-1.1446-36.693,12.91-51.451,24.5771q-1.926.93-3.875,1.876c-11.035,19.0078-26.339,21.9883-45.636,22.4287-.999.4834-1.979.97-2.9589,1.456q-2.937,1.4634-5.906,2.9493-2.0088,1.0049-4.0311,2.0175c-23.403.6182-34.646,9.501-50.341,25.628q-1.4415.747-2.889,1.4951-7.233,3.747-14.565,7.581c-1.343.7022-2.688,1.4073-3.98,2.1377-13.466,12.6319-27.99,10.4405-41.033,21.7657q-2.07,1.1162-4.144,2.24-1.782.9609-3.564,1.9258c-21.881,4.5254-37.186,7.5058-46.485,25.6894q-1.791,1.0079-3.581,2.02c-70.429,39.7812-140.221,82.8486-196.511,124.9873Z" fill="none"/>
    </clipPath>
    <linearGradient id="af244d45-4f29-452b-bc40-746b932e944f" x1="-0.0613" y1="9998.6849" x2="0.9387" y2="9998.6849" gradientTransform="matrix(-0.0001, 501.1281, 501.1281, 0.0001, -5009809.7289, 624.4854)" gradientUnits="userSpaceOnUse">
      <stop offset="0" stop-color="#f06492"/>
      <stop offset="0.0854" stop-color="#d1577f"/>
      <stop offset="0.2736" stop-color="#933d59"/>
      <stop offset="0.454" stop-color="#5f283a"/>
      <stop offset="0.6215" stop-color="#361721"/>
      <stop offset="0.7735" stop-color="#190b10"/>
      <stop offset="0.9046" stop-color="#070405"/>
      <stop offset="1" stop-color="#010101"/>
    </linearGradient>
    <clipPath id="a7283bf5-a6c6-469f-a0f3-ce0769916ac8" transform="translate(-489.2393 -616.7695)">
      <rect x="490.1993" y="715.6992" width="498.72" height="331.2002" fill="none"/>
    </clipPath>
    <clipPath id="a0482512-167f-473f-9884-0d3040818aea" transform="translate(-489.2393 -616.7695)">
      <path d="M539.3233,984.06s92.156-63.2578,205.837-127.4053q1.776-1.0018,3.559-2.0039c11.784-10.7265,27.089-13.707,39.942-21.9707q1.8435-.99,3.69-1.9785,2.5725-1.377,5.159-2.7392c16.089-7.7657,36.235-10.0157,46.841-24.1182q2.607-1.3038,5.228-2.5918,4.9425-2.436,9.884-4.83,2.472-1.1982,4.942-2.3838c9.47-12.3535,25.555-20.5058,44.18-20.373,1.669-.65,3.2931-1.3555,4.914-2.0547q4.05-1.7475,8.081-3.45c1.343-.5674,2.687-1.13,4.061-1.6738,5.391-2.627,10.233-1.8965,15.074-1.166-4.0609-5.9024-11.243,8.8828-17.066,3.6142q-1.3455.7134-2.807,1.49-1.46.7779-3.034,1.6192-2.361,1.26-4.971,2.6533c-22.096-6.3369-34.9,12.89-47.129,25.5254q-2.6925,1.4736-5.458,2.99-5.526,3.0338-11.33,6.2344c-1.213.67-2.433,1.3457-3.598,2.0508-8.296,17.5215-28.442,19.7724-41.926,23.33q-1.38.7777-2.763,1.5566t-2.774,1.5654l-3.253,1.84c-14.737,7.0547-30.042,10.0361-43.625,24.9775q-1.713.9961-3.432,1.9932c-74.467,43.2471-154.115,92.3838-205.118,132.0742,0,0-6.335-2.3281-3.108-14.7754" fill="none"/>
    </clipPath>
    <linearGradient id="ae7633c7-dc9a-48ea-b842-8118c9643671" x1="-0.0843" y1="9998.1997" x2="0.9157" y2="9998.1997" gradientTransform="matrix(0.0003, 364.4502, 364.4502, -0.0003, -3643107.4446, 731.6167)" gradientUnits="userSpaceOnUse">
      <stop offset="0" stop-color="#5d7ebf"/>
      <stop offset="1" stop-color="#010101"/>
    </linearGradient>
    <clipPath id="e7a47585-907c-43cd-9a92-0abcf6e83014" transform="translate(-489.2393 -616.7695)">
      <rect x="489.2393" y="932.1796" width="119.76" height="121.2002" fill="none"/>
    </clipPath>
  </defs>
  <title>comet</title>
  <g style="isolation: isolate">
    <g id="be86963d-54cf-4ffe-b38f-71807d6b83b5" data-name="Layer 3">
      <g opacity="0.61" style="mix-blend-mode: screen">
        <g clip-path="url(#bb8fb468-065e-4611-9993-d93e694b8062)">
          <g clip-path="url(#e33d78c8-c397-4491-a8ed-75d3293ce36f)">
            <rect x="624.4394" y="551.968" width="375.1196" height="588.2769" transform="translate(-635.0031 906.0412) rotate(-81.4214)" fill="url(#af244d45-4f29-452b-bc40-746b932e944f)"/>
          </g>
        </g>
      </g>
      <g style="mix-blend-mode: screen">
        <g clip-path="url(#a7283bf5-a6c6-469f-a0f3-ce0769916ac8)">
          <g opacity="0.68" style="mix-blend-mode: screen">
            <g clip-path="url(#a7283bf5-a6c6-469f-a0f3-ce0769916ac8)">
              <g clip-path="url(#a7283bf5-a6c6-469f-a0f3-ce0769916ac8)">
                <image width="2078" height="1380" transform="translate(0.96 98.9297) scale(0.24)" xlink:href="comet1.png"/>
              </g>
            </g>
          </g>
          <g clip-path="url(#a0482512-167f-473f-9884-0d3040818aea)">
            <rect x="589.8587" y="661.2247" width="297.0939" height="435.8049" transform="translate(-730.271 861.3651) rotate(-81.4213)" fill="url(#ae7633c7-dc9a-48ea-b842-8118c9643671)"/>
          </g>
        </g>
      </g>
      <path d="M581.8626,974.1611a29.6946,29.6946,0,0,0,5.739-11.4366,5.2976,5.2976,0,0,0,.218-2.0683,3.8478,3.8478,0,0,0-2.474-2.7871,7.5866,7.5866,0,0,0-8.476,2.3965,10.93,10.93,0,0,0-2.02,9.3066,6.7931,6.7931,0,0,0,2.7419,4.3633,3.5318,3.5318,0,0,0,4.6361-.7422.7663.7663,0,0,0-1.278-.3643Z" transform="translate(-489.2393 -616.7695)" fill="#cfa1ca"/>
      <path d="M559.7654,994.6113a29.6918,29.6918,0,0,0,5.7389-11.4375,5.3109,5.3109,0,0,0,.219-2.0674,3.8478,3.8478,0,0,0-2.475-2.7871,7.5839,7.5839,0,0,0-8.476,2.3965,10.9247,10.9247,0,0,0-2.0189,9.3056,6.7855,6.7855,0,0,0,2.7409,4.3633,3.5314,3.5314,0,0,0,4.6361-.7412.7667.7667,0,0,0-1.2781-.3662Z" transform="translate(-489.2393 -616.7695)" fill="#cfa1ca"/>
      <path d="M719.2439,880.0429a20.9523,20.9523,0,0,0,4.0539-8.0781,3.7558,3.7558,0,0,0,.1551-1.461,2.7233,2.7233,0,0,0-1.748-1.9707,5.3629,5.3629,0,0,0-5.989,1.6944,7.7187,7.7187,0,0,0-1.4261,6.5752,4.7982,4.7982,0,0,0,1.9361,3.082,2.495,2.495,0,0,0,3.276-.5254.5418.5418,0,0,0-.903-.2568Z" transform="translate(-489.2393 -616.7695)" fill="#cfa1ca"/>
      <path d="M563.8724,976.5019a7.804,7.804,0,0,0,.924-7.0674,7.1061,7.1061,0,0,0-6.387,2.2588c-1.535,1.8887-1.579,5.1553.288,6.5879,1.866,1.4355,5.193-.2774,4.908-2.7266Z" transform="translate(-489.2393 -616.7695)" fill="#cfa1ca"/>
      <path d="M596.2581,978.0458a9.041,9.041,0,0,0,.083-2.5068.48.48,0,0,0-.093-.2812.3465.3465,0,0,0-.286-.085c-.814.06-1.469,1.2432-2.214.9053-.134-.06-.264-.1719-.409-.1416-.242.0468-.275.4091-.205.6562a2.0725,2.0725,0,0,0,3.118,1.1123c-.035.1221-.068.2451-.103.3682Z" transform="translate(-489.2393 -616.7695)" fill="#cfa1ca"/>
      <path d="M613.3689,937.2734a17.0664,17.0664,0,0,0,.157-4.7266.91.91,0,0,0-.1761-.5322.6523.6523,0,0,0-.539-.1592c-1.5349.1143-2.7689,2.3447-4.174,1.708-.253-.1133-.498-.3232-.771-.2685-.4549.0888-.518.7695-.3849,1.2382a3.9054,3.9054,0,0,0,5.8769,2.0967c-.0639.2324-.1289.4629-.193.6953Z" transform="translate(-489.2393 -616.7695)" fill="#cfa1ca"/>
      <path d="M534.5286,991.5214a17.094,17.094,0,0,0,.158-4.7256.9184.9184,0,0,0-.177-.5322.6527.6527,0,0,0-.539-.16c-1.535.1152-2.769,2.3457-4.174,1.7089-.253-.1142-.497-.3232-.771-.2695-.455.09-.518.7715-.385,1.2393a3.906,3.906,0,0,0,5.877,2.0966c-.064.2325-.129.462-.193.6944Z" transform="translate(-489.2393 -616.7695)" fill="#cfa1ca"/>
      <path d="M634.8089,916.5527a1.5665,1.5665,0,0,0-.048-.9463,1.436,1.436,0,0,0-.683-.5508,13.0183,13.0183,0,0,1-2.034-1.3154q.4393,2.0684.877,4.1377a.8648.8648,0,0,1,.0279.3349c-.0669.39-.5539.4873-.807.7793-.3719.4258-.146,1.1123.1631,1.5772,2.201,3.3193,2.232-2.2744,2.504-4.0166" transform="translate(-489.2393 -616.7695)" fill="#cfa1ca"/>
      <path d="M670.8694,893.2861a1.5685,1.5685,0,0,0-.0481-.9473,1.4416,1.4416,0,0,0-.6829-.5508,12.9149,12.9149,0,0,1-2.034-1.3144q.438,2.0668.877,4.1377a.9055.9055,0,0,1,.0279.3349c-.0669.39-.5539.4873-.807.7783-.3719.4258-.146,1.1133.1621,1.5782,2.2019,3.3193,2.232-2.2754,2.505-4.0166" transform="translate(-489.2393 -616.7695)" fill="#cfa1ca"/>
      <path d="M653.2049,941.4042a1.6248,1.6248,0,0,1-2.7371.1563,1.84,1.84,0,0,1,1.2151-2.6377,1.7379,1.7379,0,0,1,1.586,2.3428Z" transform="translate(-489.2393 -616.7695)" fill="#cfa1ca"/>
      <path d="M608.3338,955.7011c.374.835.6689,2.0186-.058,2.55-.697.5108-1.5911-.14-2.188-.7529a1.1487,1.1487,0,0,1-.449-.9824c.2129-.9121,1.876-.2412,2.263-1.0889.253-.0322.336.458.09.5322Z" transform="translate(-489.2393 -616.7695)" fill="#cfa1ca"/>
      <path d="M671.3772,907.6982c.374.8349.6689,2.0185-.0581,2.55-.6969.5107-1.59-.14-2.1879-.7529a1.1524,1.1524,0,0,1-.449-.9815c.2129-.9131,1.876-.2422,2.264-1.09.253-.0323.335.458.0889.5322Z" transform="translate(-489.2393 -616.7695)" fill="#cfa1ca"/>
      <path d="M571.7947,955.4345a1.8237,1.8237,0,0,1,.046,1.03,2.8646,2.8646,0,0,1-1.237-2.2031c-.094-.4864-.127-1.1036.269-1.3829.275-.1923.635-.123.956-.2011.641-.1573,1.266-.9131,1.82-.5508a.8864.8864,0,0,1,.209,1.0576,2.5153,2.5153,0,0,1-.743.8789q-.951.8232-1.901,1.6426Z" transform="translate(-489.2393 -616.7695)" fill="#cfa1ca"/>
      <path d="M645.6766,894.6181a1.8245,1.8245,0,0,1,.046,1.03,2.86,2.86,0,0,1-1.236-2.2022c-.095-.4873-.127-1.1035.267-1.3828.276-.1924.637-.123.957-.2012.641-.1572,1.266-.914,1.82-.5507a.8872.8872,0,0,1,.209,1.0586,2.53,2.53,0,0,1-.743.8779l-1.901,1.6426Z" transform="translate(-489.2393 -616.7695)" fill="#cfa1ca"/>
      <path d="M559.679,960.0244c.301-.6543-.662-1.2686-1.261-.9122a2.7318,2.7318,0,0,0-.974,1.8506,2.3161,2.3161,0,0,0,2.577-.6972Z" transform="translate(-489.2393 -616.7695)" fill="#cfa1ca"/>
      <path d="M518.5716,932.7578a.5952.5952,0,0,1-.851.122,1.2265,1.2265,0,0,1-.4071-.8818,1.2548,1.2548,0,0,1,.0691-.59.7914.7914,0,0,1,1.102-.3808.9426.9426,0,0,1,.2769,1.208.909.909,0,0,1-1.138.3955Z" transform="translate(-489.2393 -616.7695)" fill="#fff"/>
      <path d="M609.0032,923.8105c.646.2158,1.372-.6182,1.119-1.2871a1.5687,1.5687,0,0,0-1.042.0283.8827.8827,0,0,0-.521.8955.5214.5214,0,0,0,.805.3584Z" transform="translate(-489.2393 -616.7695)" fill="#cfa1ca"/>
      <path d="M582.1146,947.8564a3.008,3.008,0,0,0,1.107-2.2451c-.667.0556-1.334.1093-2.002.165a1.7346,1.7346,0,0,0-.906.249,1.1966,1.1966,0,0,0-.058,1.7129,1.4315,1.4315,0,0,0,1.722.1074Z" transform="translate(-489.2393 -616.7695)" fill="#cfa1ca"/>
      <path d="M606.7381,950.4814a2.2412,2.2412,0,0,0,1.433-1.9785,2.3251,2.3251,0,0,0-1.736-.0323,1.8127,1.8127,0,0,0-1.207,1.9151c.175.8125,1.425,1.1094,1.758.3457Z" transform="translate(-489.2393 -616.7695)" fill="#cfa1ca"/>
      <path d="M601.0511,957.2392a1.23,1.23,0,0,1-1.408.6816c-.086-.6455-.172-1.289-.258-1.9345a1.3717,1.3717,0,0,1,2.0169.8818Z" transform="translate(-489.2393 -616.7695)" fill="#cfa1ca"/>
      <path d="M594.5369,976.1454c.087.2432.174.4874.261.7305a3.6475,3.6475,0,0,1-1.663-.2842,1.4122,1.4122,0,0,1-.794-1.4433c.115-.5957.907-.9746,1.299-.5449a3.0913,3.0913,0,0,1,.816,1.5634Z" transform="translate(-489.2393 -616.7695)" fill="#cfa1ca"/>
      <path d="M538.3646,982.5546q.13.3663.261.7305a3.6492,3.6492,0,0,1-1.663-.2832,1.4136,1.4136,0,0,1-.793-1.4443c.114-.5948.906-.9747,1.299-.545a3.1178,3.1178,0,0,1,.815,1.5635Z" transform="translate(-489.2393 -616.7695)" fill="#cfa1ca"/>
      <path d="M555.96,952.041a1.2268,1.2268,0,0,1-1.247.5351,1.2488,1.2488,0,0,1-.928-1.0019c-.059-.337.098-.78.422-.795a.6973.6973,0,0,1,.376.14q.7665.4716,1.535.9443c-.067.086-.134.1719-.2.26Z" transform="translate(-489.2393 -616.7695)" fill="#cfa1ca"/>
      <path d="M810.073,827.5468c-2.096-2.9082-2.096-2.9082-.171.0977Z" transform="translate(-489.2393 -616.7695)" fill="#cfa1ca"/>
      <path d="M804.7767,838.623a1.1255,1.1255,0,0,0,.715,1.3633,1.5038,1.5038,0,0,0,1.505-.5078c.17-.1875.308-.4874.164-.6924a.5729.5729,0,0,0-.449-.1817c-.674-.0576-1.349-.1172-2.023-.1748Z" transform="translate(-489.2393 -616.7695)" fill="#cfa1ca"/>
      <path d="M644.8987,924.3593c.7019.5176,1.5609-.4189,1.9889-1.2246a1.99,1.99,0,0,0,.3191-1.6289c-.3-.6973-1.219-.6924-1.9391-.582q-.9375.1449-1.8759.289a.9865.9865,0,0,0-.7471.3643,1.0568,1.0568,0,0,0-.0339.7666,9.3878,9.3878,0,0,0,1.622,3.5322Z" transform="translate(-489.2393 -616.7695)" fill="#cfa1ca"/>
      <path d="M620.9647,933.7245c5.764,5.29,11.075-2.5576,7.312-8.2128-3.943-5.9278-12.328,3.6093-7.312,8.2128" transform="translate(-489.2393 -616.7695)" fill="#cfa1ca"/>
      <path d="M543.7874,981.121c5.764,5.29,11.075-2.5586,7.312-8.2138-3.943-5.9268-12.328,3.61-7.312,8.2138" transform="translate(-489.2393 -616.7695)" fill="#cfa1ca"/>
      <path d="M567.3875,965.915a1.7426,1.7426,0,0,1-2.611-1.169,4.3433,4.3433,0,0,1,2.497-.68,1.607,1.607,0,0,1,1.359,1.9248q-.6615.4176-1.321.8321Z" transform="translate(-489.2393 -616.7695)" fill="#cfa1ca"/>
      <path d="M820.1185,829.1318c6.284-28.16-3.238,2.14-.688.3261Z" transform="translate(-489.2393 -616.7695)" fill="#cfa1ca"/>
      <path d="M578.012,896.4306a4.8692,4.8692,0,0,0,.462-1.7783,1.5336,1.5336,0,0,0-.843-1.47,1.2118,1.2118,0,0,0-.845.0283,1.849,1.849,0,0,0-.975,2.2754,1.6046,1.6046,0,0,0,2.169.8642Z" transform="translate(-489.2393 -616.7695)" fill="#cfa1ca"/>
      <path d="M618.2269,924.58c.247.8389-.685,1.7871-1.458,1.4863a3.5268,3.5268,0,0,1-.499-1.3427,1.949,1.949,0,0,1,1.483-.1328Z" transform="translate(-489.2393 -616.7695)" fill="#cfa1ca"/>
      <path d="M563.8167,982.6269q-.1035-.6153-.207-1.2315a1.978,1.978,0,0,0-.888.1563,1.1527,1.1527,0,0,0,.895,1.3369Z" transform="translate(-489.2393 -616.7695)" fill="#cfa1ca"/>
      <g opacity="0.92">
        <g clip-path="url(#e7a47585-907c-43cd-9a92-0abcf6e83014)">
          <g opacity="0.68" style="mix-blend-mode: screen">
            <g clip-path="url(#e7a47585-907c-43cd-9a92-0abcf6e83014)">
              <g clip-path="url(#e7a47585-907c-43cd-9a92-0abcf6e83014)">
                <image width="499" height="505" transform="translate(0 315.4102) scale(0.24 0.24)" xlink:href="comet2.png"/>
              </g>
            </g>
          </g>
          <path d="M560.6585,994.4941c-1.027,6.8115-7.0291,11.5527-13.405,10.5908s-10.711-7.2637-9.683-14.0732c1.027-6.8125,7.0279-11.5518,13.404-10.5909s10.712,7.2618,9.684,14.0733" transform="translate(-489.2393 -616.7695)" fill="#cfa1ca"/>
        </g>
      </g>
      <path d="M744.0286,853.29a1.2919,1.2919,0,0,1-1.843.2959,2.6465,2.6465,0,0,1-.911-1.8985,2.7223,2.7223,0,0,1,.129-1.2832,1.7255,1.7255,0,0,1,2.381-.8672,2.0423,2.0423,0,0,1,.64,2.6094,1.9846,1.9846,0,0,1-2.458.9043Z" transform="translate(-489.2393 -616.7695)" fill="#fff"/>
    </g>
  </g>
</svg>
