<svg id="abaabb68-734c-4b82-a84b-e6d0866d4944" data-name="Layer 3" xmlns="http://www.w3.org/2000/svg" width="60.8976cm" height="48.5695cm" viewBox="0 0 1726.2315 1376.7723">
  <title>rock-md</title>
  <path d="M325.8355,448.1486a21.3326,21.3326,0,0,0,17.46,11.03c3.7689-6.1065,5.4629-13.9844,2.508-20.5254s-11.529-10.5664-17.801-7.0733c-6.27,3.4922-6.1611,14.8233.6919,16.958Z" transform="translate(-67.2355 -132.9843)" fill="#e6d0e2"/>
  <path d="M1001.1451,1338.0392a21.3346,21.3346,0,0,0-8.781-18.6924c-6.4641,3.1192-12.1321,8.8467-13.16,15.9512-1.029,7.1025,4.032,15.1094,11.197,15.541,7.164.43,13.169-9.1806,8.542-14.667Z" transform="translate(-67.2355 -132.9843)" fill="#e6d0e2"/>
  <path d="M644.5753,1134.5334A21.3416,21.3416,0,0,0,665.08,1137c.7821-7.1367-1.07-14.9794-6.5479-19.6162s-14.949-4.5918-19.113,1.2539.8,16.0323,7.906,15.0186Z" transform="translate(-67.2355 -132.9843)" fill="#e6d0e2"/>
  <path d="M1356.6177,1487.674a21.3345,21.3345,0,0,0-18.61,8.9551c3.1791,6.4365,8.9611,12.05,16.0741,13.0117s15.0719-4.1729,15.4349-11.3418c.365-7.169-9.3-13.084-14.7449-8.4053Z" transform="translate(-67.2355 -132.9843)" fill="#e6d0e2"/>
  <path d="M1591.1548,502.5216a21.33,21.33,0,0,0-8.78-18.69c-6.464,3.1191-12.1321,8.8467-13.16,15.9512-1.028,7.1025,4.032,15.1084,11.197,15.541,7.165.4287,13.1689-9.1807,8.543-14.667Z" transform="translate(-67.2355 -132.9843)" fill="#e6d0e2"/>
  <path d="M587.4639,134.6994a21.3361,21.3361,0,0,0-12.6061,16.3593c5.7311,4.3223,13.418,6.7422,20.206,4.4063,6.786-2.3359,11.591-10.4971,8.6971-17.0664-2.8941-6.5674-14.1871-7.5117-16.95-.8867Z" transform="translate(-67.2355 -132.9843)" fill="#e6d0e2"/>
  <path d="M85.1343,338.3312A21.3309,21.3309,0,0,0,96.0653,320.81c-6.128-3.7363-14.016-5.3847-20.54-2.3926s-10.5,11.59-6.973,17.8409c3.529,6.25,14.858,6.0761,16.955-.7881Z" transform="translate(-67.2355 -132.9843)" fill="#e6d0e2"/>
  <path d="M99.5919,1315.8839a21.3367,21.3367,0,0,0-17.624-10.7675c-3.677,6.164-5.253,14.0664-2.2,20.5625,3.055,6.4951,11.687,10.3925,17.905,6.8066s5.939-14.9141-.946-16.9463Z" transform="translate(-67.2355 -132.9843)" fill="#e6d0e2"/>
  <path d="M1786.0816,624.0744a21.3317,21.3317,0,0,0-20.62-1.14c-.3209,7.17,2.0331,14.877,7.7981,19.1533,5.765,4.2745,15.213,3.62,18.9919-2.4843,3.7781-6.1006-1.8309-15.9473-8.8569-14.4766Z" transform="translate(-67.2355 -132.9843)" fill="#e6d0e2"/>
</svg>
