<svg
    id="f549b263-e1b9-4963-8fce-97a7b396b6f3"
    data-name="Layer 3"
    xmlns="http://www.w3.org/2000/svg"
    width="61.1265cm"
    height="44.4898cm"
    viewBox="0 0 1732.7184 1261.1293"
>
    <title>rock-lg</title>
    <g>
        <path
            d="M1256.4944,1473.576a82.29,82.29,0,0,0-3.086-37.1924,14.4341,14.4341,0,0,0-2.705-5.3828c-2.6271-2.9043-7.0541-3.4483-10.9021-2.7246-9.412,1.7734-16.8879,10.248-18.419,19.7031-1.5329,9.4541,2.464,19.3838,9.4581,25.9267,3.842,3.5948,8.842,6.3389,14.098,6.1153,5.2579-.2236,10.527-4.1514,10.978-9.3936a2.4494,2.4494,0,0,0-3.9281,1.2032Z"
            transform="translate(-68.0025 -265.1151)"
            fill="#e6d0e2"
        />
    </g>
    <g>
        <path
            d="M1178.93,1117.8807a82.2718,82.2718,0,0,0-3.0851-37.1924,14.4319,14.4319,0,0,0-2.705-5.3828c-2.628-2.9043-7.053-3.4483-10.901-2.7246-9.4129,1.7724-16.888,10.249-18.421,19.7021-1.533,9.4551,2.464,19.3848,9.459,25.9268,3.842,3.5947,8.841,6.3408,14.098,6.1142,5.257-.2217,10.527-4.1494,10.978-9.3916a2.4485,2.4485,0,0,0-3.9279,1.2031Z"
            transform="translate(-68.0025 -265.1151)"
            fill="#e6d0e2"
        />
    </g>
    <g>
        <path
            d="M87.8513,822.5525a82.2726,82.2726,0,0,0-7.991,36.4551,14.44,14.44,0,0,0,1.002,5.9414c1.657,3.5479,5.728,5.37,9.619,5.8086,9.517,1.0742,19.156-4.8271,23.4-13.4141s3.347-19.2509-1.414-27.56c-2.616-4.5664-6.587-8.66-11.678-9.9912-5.089-1.333-11.28.8711-13.254,5.748a2.4479,2.4479,0,0,0,4.108.0069Z"
            transform="translate(-68.0025 -265.1151)"
            fill="#e6d0e2"
        />
    </g>
    <g>
        <path
            d="M1431.8841,268.2586a82.28,82.28,0,0,0-7.9911,36.4551,14.4432,14.4432,0,0,0,1.002,5.9414c1.658,3.5478,5.7279,5.3691,9.62,5.8086,9.516,1.0742,19.1549-4.8272,23.399-13.4141s3.347-19.251-1.414-27.5615c-2.615-4.5654-6.587-8.6592-11.678-9.99-5.088-1.333-11.28.8711-13.253,5.7481a2.448,2.448,0,0,0,4.108.0059Z"
            transform="translate(-68.0025 -265.1151)"
            fill="#e6d0e2"
        />
    </g>
    <g>
        <path
            d="M69.6833,1504.0935c-8.615,22.1231,18.113,29.81,29.735,13.1729,12.181-17.44-22.238-32.4229-29.735-13.1729"
            transform="translate(-68.0025 -265.1151)"
            fill="#e6d0e2"
        />
    </g>
    <g>
        <path
            d="M1799.844,1098.9783a82.28,82.28,0,0,0-3.0851-37.1943,14.4412,14.4412,0,0,0-2.7059-5.3828c-2.6261-2.9034-7.0531-3.4473-10.901-2.7237-9.412,1.7725-16.8881,10.2481-18.4191,19.7032-1.5329,9.455,2.463,19.3837,9.458,25.9267,3.8421,3.5947,8.8411,6.3389,14.0981,6.1143,5.2579-.2227,10.526-4.1494,10.978-9.3926a2.4488,2.4488,0,0,0-3.928,1.2031Z"
            transform="translate(-68.0025 -265.1151)"
            fill="#e6d0e2"
        />
    </g>
    <g>
        <path
            d="M415.49,854.2449a82.3035,82.3035,0,0,0,29.562-22.7822,14.4387,14.4387,0,0,0,3.051-5.1953c1.013-3.7822-.933-7.794-3.631-10.6328-6.598-6.9434-17.775-8.6192-26.546-4.7735s-14.942,12.5918-16.64,22.0186c-.932,5.1787-.522,10.8672,2.519,15.16s9.201,6.586,13.848,4.1182a2.4484,2.4484,0,0,0-3.142-2.6445Z"
            transform="translate(-68.0025 -265.1151)"
            fill="#e6d0e2"
        />
    </g>
</svg>
