<svg id="fa68b1ed-be78-4dd2-8843-f7632fa57fa4" data-name="Layer 3" xmlns="http://www.w3.org/2000/svg" width="63.5013cm" height="59.9172cm" viewBox="0 0 1800.0355 1698.4414">
  <title>rock-sm</title>
  <path d="M798.5988,1702.704c-.956-.9746-2.713-.01-3.195,1.2705-.48,1.2783-.261,2.7178-.604,4.041a4.9178,4.9178,0,0,1-2.598,3.1533,2.3616,2.3616,0,0,1-2.341.0205,2.9282,2.9282,0,0,1-.894-1.3554,14.739,14.739,0,0,1-1.301-7.8672c.446-2.6572,2.328-5.2129,4.965-5.7539a5.2929,5.2929,0,0,1,6.037,7.0019Z" transform="translate(-71.82 -76.5347)" fill="#e6d0e2"/>
  <path d="M1161.72,1509.6532a7.59,7.59,0,0,0-1.46-2.6855,2.589,2.589,0,0,0-2.794-.74c-1.547.6973-1.495,2.9424-2.552,4.2666-1.06,1.3252-3.217,1.6924-3.766,3.3008-.5431,1.5859,1.0931,3.2481,2.767,3.3545a7.3394,7.3394,0,0,0,4.579-1.8174,8.1983,8.1983,0,0,0,2.987-3.2724,3.2274,3.2274,0,0,0-1.033-3.9766Z" transform="translate(-71.82 -76.5347)" fill="#e6d0e2"/>
  <path d="M1646.4347,156.288a4.3026,4.3026,0,0,0,2.568.999,4.5179,4.5179,0,0,0,2.3639-1.2471,41.5188,41.5188,0,0,1,6.177-4.1035q-6.0538-1.25-12.106-2.5a2.4634,2.4634,0,0,1-.922-.3232c-.937-.6514-.5529-2.128-.9859-3.1846-.6341-1.5439-2.745-1.7363-4.386-1.4307-11.698,2.1758,3.048,8.9473,7.291,11.79" transform="translate(-71.82 -76.5347)" fill="#e6d0e2"/>
  <path d="M469.6842,469.622a1.9044,1.9044,0,0,1,.809-2.5205,3.5479,3.5479,0,0,1,2.871-.0811,3.411,3.411,0,0,1,1.47.8975,2.4877,2.4877,0,0,1-.456,3.5332,2.6635,2.6635,0,0,1-3.561-.6709,2.87,2.87,0,0,1,.461-3.6514Z" transform="translate(-71.82 -76.5347)" fill="#e6d0e2"/>
  <path d="M1629.2423,132.077a2.9352,2.9352,0,0,0,1.919,4.6621,5.1286,5.1286,0,0,0,1.308-2.9414,2.485,2.485,0,0,0-1.673-2.5253c-1.0611-.2608-2.307.7656-2.02,1.8193Z" transform="translate(-71.82 -76.5347)" fill="#e6d0e2"/>
  <path d="M459.838,441.87a3.74,3.74,0,0,1,4.122-5.5117c.969.2383,1.935,1.209,1.543,2.1269a2.2588,2.2588,0,0,1-.868.8819q-2.268,1.5805-4.537,3.1553c-.14-.2881-.281-.5782-.421-.8672Z" transform="translate(-71.82 -76.5347)" fill="#e6d0e2"/>
  <path d="M432.7941,282.9872c.493-1.7471-1.099-3.3428-2.582-4.3877-1.484-1.0469-3.212-2.3408-3.136-4.1553a1.5757,1.5757,0,0,1,.634-1.2842c1.077-.6884,2.227.6895,3.317,1.3545a13.2655,13.2655,0,0,0,2.904.9258,6.0893,6.0893,0,0,1,4.071,5.4961,3.3534,3.3534,0,0,1-6.152-.2744Z" transform="translate(-71.82 -76.5347)" fill="#e6d0e2"/>
  <path d="M449.7736,276.5282q.921-.501,1.841-1a2.5417,2.5417,0,0,0-2.077-2.3945,2.1144,2.1144,0,0,0-2.338,1.9521,1.811,1.811,0,0,0,2.398,1.626Z" transform="translate(-71.82 -76.5347)" fill="#e6d0e2"/>
  <path d="M1422.3634,1473.1708c.6129-.3311,1.2269-.6651,1.841-.9971a2.5423,2.5423,0,0,0-2.078-2.3955,2.1125,2.1125,0,0,0-2.3381,1.95,1.8128,1.8128,0,0,0,2.3991,1.6279Z" transform="translate(-71.82 -76.5347)" fill="#e6d0e2"/>
  <path d="M1398.8292,1505.3485c-.775.1133-1.4431-.7051-1.442-1.49a3.3514,3.3514,0,0,1,.984-2.083,4.0475,4.0475,0,0,1,1.4829-1.1807,2.81,2.81,0,0,1,3.287,1.1543,3.5474,3.5474,0,0,1-.026,3.5957,2.2848,2.2848,0,0,1-1.375,1.1494,1.2457,1.2457,0,0,1-1.4779-.7656Z" transform="translate(-71.82 -76.5347)" fill="#e6d0e2"/>
  <path d="M1116.5646,1327.3739a1.4326,1.4326,0,0,1,.4149,2.0332,3.3609,3.3609,0,0,1-1.9509,1.2266,4.0668,4.0668,0,0,1-1.8861.1963,2.8054,2.8054,0,0,1-2.147-2.7412,3.5426,3.5426,0,0,1,1.9561-3.0176,2.2877,2.2877,0,0,1,1.776-.2285,1.2448,1.2448,0,0,1,.8349,1.4414Z" transform="translate(-71.82 -76.5347)" fill="#e6d0e2"/>
  <path d="M988.7257,1607.4061c1.018-1.5029.01-3.5185-1.069-4.9775s-2.313-3.2344-1.669-4.9307a1.5841,1.5841,0,0,1,1.008-1.0224c1.237-.3115,1.894,1.3584,2.72,2.332a13.274,13.274,0,0,0,2.465,1.793,6.0883,6.0883,0,0,1,2.133,6.498,3.3536,3.3536,0,0,1-5.753-2.1972Z" transform="translate(-71.82 -76.5347)" fill="#e6d0e2"/>
  <path d="M1006.8761,1606.62q1.0305-.1831,2.062-.3682a2.54,2.54,0,0,0-1.218-2.9267,2.1131,2.1131,0,0,0-2.833,1.1142,1.8109,1.8109,0,0,0,1.764,2.3Z" transform="translate(-71.82 -76.5347)" fill="#e6d0e2"/>
  <path d="M989.3126,1583.0741a1.4312,1.4312,0,0,1-.9-1.8672,3.3519,3.3519,0,0,1,1.589-1.6679,4.0509,4.0509,0,0,1,1.781-.6524,2.8066,2.8066,0,0,1,2.755,2.13,3.5476,3.5476,0,0,1-1.1569,3.4053,2.2886,2.2886,0,0,1-1.6651.6582,1.2505,1.2505,0,0,1-1.164-1.1934Z" transform="translate(-71.82 -76.5347)" fill="#e6d0e2"/>
  <path d="M1311.2345,339.1766a4.9737,4.9737,0,0,1-2.7831-1.1035c1.949-1.7265,4.9261-1.3916,7.4661-.8174,1.4149.3213,3.088.9668,3.298,2.4014.1469,1.001-.5191,1.9238-.7371,2.9121-.4349,1.9756.734,4.626-.9609,5.7354a2.4861,2.4861,0,0,1-3.073-.6787,7.2353,7.2353,0,0,1-1.3361-3.127q-.9089-3.6329-1.819-7.2676Z" transform="translate(-71.82 -76.5347)" fill="#e6d0e2"/>
  <path d="M1158.548,273.786a4.2974,4.2974,0,0,0-2.6431-.7851,4.54,4.54,0,0,0-2.253,1.4365,41.065,41.065,0,0,1-5.82,4.5937q6.1367.7515,12.271,1.501a2.436,2.436,0,0,1,.944.2461c.989.5742.727,2.0762,1.2461,3.0947.7569,1.4873,2.8769,1.5059,4.4869,1.0655,11.481-3.127-3.771-8.668-8.2319-11.1524" transform="translate(-71.82 -76.5347)" fill="#e6d0e2"/>
  <path d="M995.1632,323.4061a2.1173,2.1173,0,0,1-.509,2.5791,2.6075,2.6075,0,0,1-2.422.3164,2.76,2.76,0,0,1-1.303-.7734,2.8036,2.8036,0,0,1,.139-3.5586,2.0249,2.0249,0,0,1,3.057.376,3.2744,3.2744,0,0,1-.136,3.6777Z" transform="translate(-71.82 -76.5347)" fill="#e6d0e2"/>
  <path d="M1734.089,1385.1493a1.9042,1.9042,0,0,1-.6,2.5781,3.54,3.54,0,0,1-2.855.3164,3.4019,3.4019,0,0,1-1.5379-.7734,2.4863,2.4863,0,0,1,.165-3.5586,2.6624,2.6624,0,0,1,3.6029.376,2.8688,2.8688,0,0,1-.1589,3.6767Z" transform="translate(-71.82 -76.5347)" fill="#e6d0e2"/>
  <path d="M1221.06,403.6444a2.9355,2.9355,0,0,0-2.295-4.4883,5.1144,5.1144,0,0,0-1.0611,3.0381,2.4815,2.4815,0,0,0,1.874,2.3789c1.0781.1739,2.236-.95,1.8631-1.9785Z" transform="translate(-71.82 -76.5347)" fill="#e6d0e2"/>
  <path d="M1809.2872,1283.7616c-.348,1.7822,1.368,3.2393,2.933,4.1611,1.565.92,3.393,2.07,3.466,3.8858a1.578,1.578,0,0,1-.527,1.332c-1.017.7725-2.275-.5068-3.417-1.0791a13.4468,13.4468,0,0,0-2.9711-.6855,6.08,6.08,0,0,1-4.505-5.1416,3.352,3.352,0,0,1,6.1531-.2315Z" transform="translate(-71.82 -76.5347)" fill="#e6d0e2"/>
  <path d="M1777.3175,1309.7157q-.8762.5757-1.7521,1.1465a2.5384,2.5384,0,0,0,2.267,2.2168,2.1144,2.1144,0,0,0,2.171-2.1348,1.8121,1.8121,0,0,0-2.526-1.4248Z" transform="translate(-71.82 -76.5347)" fill="#e6d0e2"/>
  <path d="M1781.882,1358.5009q-.8762.5757-1.7531,1.1484a2.54,2.54,0,0,0,2.268,2.2148,2.113,2.113,0,0,0,2.171-2.1337,1.8135,1.8135,0,0,0-2.526-1.4258Z" transform="translate(-71.82 -76.5347)" fill="#e6d0e2"/>
  <path d="M1802.6984,1324.5048a1.4336,1.4336,0,0,1,1.5609,1.3672,3.3557,3.3557,0,0,1-.8109,2.1562,4.05,4.05,0,0,1-1.3821,1.2979,2.8075,2.8075,0,0,1-3.369-.8809,3.5452,3.5452,0,0,1-.27-3.5859,2.2859,2.2859,0,0,1,1.275-1.2569,1.2439,1.2439,0,0,1,1.5381.6426Z" transform="translate(-71.82 -76.5347)" fill="#e6d0e2"/>
  <path d="M489.3419,612.0516q-1.029-.369-2.057-.74a4.6178,4.6178,0,0,0-.739,3.211c.301,1.0849,1.906,1.7587,2.578.8554a2.2971,2.2971,0,0,0,.331-1.209q.165-2.0214.328-4.0449Z" transform="translate(-71.82 -76.5347)" fill="#e6d0e2"/>
  <path d="M1653.2472,1324.3876a4.9918,4.9918,0,0,1,2.866.873c-1.802,1.8819-4.7951,1.793-7.3741,1.4268-1.436-.2031-3.1579-.709-3.4859-2.1231-.2271-.9853.3609-1.9589.4979-2.9609.27-2.0059-1.11-4.5508.4871-5.7949a2.4891,2.4891,0,0,1,3.119.4238,7.2589,7.2589,0,0,1,1.588,3.0059l2.408,7.0947Z" transform="translate(-71.82 -76.5347)" fill="#e6d0e2"/>
  <path d="M765.8683,1768.1454q1.014.2652,2.027.5283a2.54,2.54,0,0,0,.118-3.1689,2.1137,2.1137,0,0,0-3.039-.1719,1.8125,1.8125,0,0,0,.6409,2.8281Z" transform="translate(-71.82 -76.5347)" fill="#e6d0e2"/>
  <path d="M798.9352,1731.9872q1.014.2637,2.027.5264a2.54,2.54,0,0,0,.119-3.167,2.1142,2.1142,0,0,0-3.04-.1729,1.8109,1.8109,0,0,0,.6409,2.8272Z" transform="translate(-71.82 -76.5347)" fill="#e6d0e2"/>
  <path d="M759.7682,1739.411a1.4321,1.4321,0,0,1-.035-2.0732,3.3567,3.3567,0,0,1,2.142-.8506,4.0772,4.0772,0,0,1,1.89.1533,2.8043,2.8043,0,0,1,1.61,3.0869,3.5434,3.5434,0,0,1-2.474,2.6094,2.2852,2.2852,0,0,1-1.789-.1006,1.2462,1.2462,0,0,1-.556-1.57Z" transform="translate(-71.82 -76.5347)" fill="#e6d0e2"/>
  <path d="M422.4411,1309.1942a24.6685,24.6685,0,0,0,7.273.1192,1.3748,1.3748,0,0,0,.82-.3037,1.135,1.135,0,0,0,.245-.8868c-.174-2.5146-3.605-4.4736-2.625-6.7929.176-.418.499-.8262.415-1.2725-.138-.7432-1.186-.8271-1.905-.5947a6.6468,6.6468,0,0,0-3.232,9.6953c-.357-.1-.712-.1973-1.069-.2959Z" transform="translate(-71.82 -76.5347)" fill="#e6d0e2"/>
  <path d="M74.6959,1481.6806a46.5074,46.5074,0,0,0,13.035-4.2579,2.5872,2.5872,0,0,0,1.274-1.0459,2.1356,2.1356,0,0,0-.108-1.7324c-1.857-4.373-9.174-5.7529-8.855-10.4922.058-.8564.383-1.78-.041-2.5244-.704-1.2392-2.621-.7441-3.762.11-5.978,4.4814-5.87,14.9111.199,19.2666q-1.044.0644-2.086.1289Z" transform="translate(-71.82 -76.5347)" fill="#e6d0e2"/>
  <path d="M1095.0314,1259.2382a13.3136,13.3136,0,0,0,11.6339,1.6465,13.7444,13.7444,0,0,0-1.9879-5.0489,4.6772,4.6772,0,0,0-4.739-1.9931c-2.3991.665-3.2981,3.5322-3.8111,5.9687q-.5639-.8613-1.1309-1.7207Z" transform="translate(-71.82 -76.5347)" fill="#e6d0e2"/>
  <path d="M243.7228,1462.3222a4.3046,4.3046,0,0,0,2.534-1.086,4.5351,4.5351,0,0,0,.813-2.5459,41.4863,41.4863,0,0,1,1.536-7.2539q-5.1975,3.3486-10.392,6.6943a2.4549,2.4549,0,0,1-.885.4141c-1.127.19-1.885-1.1308-2.935-1.582-1.533-.6592-3.175.6816-4.132,2.05-6.827,9.7451,8.441,4.2519,13.461,3.31" transform="translate(-71.82 -76.5347)" fill="#e6d0e2"/>
  <path d="M292.73,567.88q-1.3155,1.2436-2.633,2.49c1.772,1.6377,4.568,2.457,6.636,1.2129s2.29-4.9268.064-5.8574c-1.375-.5752-3.769-.9248-3.17-2.291Z" transform="translate(-71.82 -76.5347)" fill="#e6d0e2"/>
  <path d="M823.1657,1611.0673c-3.352-.5176-5.224-5.1348-3.18-7.8408s6.997-2.167,8.411.915-1.405,7.1885-4.79,6.9756Z" transform="translate(-71.82 -76.5347)" fill="#e6d0e2"/>
  <path d="M110.4205,1424.0292c-1.895,1.9258-4.823,3.97-7.003,2.3769-2.092-1.5293-1.223-4.788-.149-7.1464.462-1.0147,1.11-2.1729,2.221-2.292,2.702-.2891,2.545,5.2392,5.246,5.5273.34.7061-.911,1.4356-1.359.794Z" transform="translate(-71.82 -76.5347)" fill="#e6d0e2"/>
  <path d="M561.5065,1300.0966a4.9938,4.9938,0,0,1-2.9881.1972c1.0181-2.3955,3.85-3.372,6.3921-3.9414,1.415-.3183,3.204-.4541,4.01.753.562.84.3571,1.96.5841,2.9433.456,1.9737,2.648,3.8643,1.594,5.5938a2.4892,2.4892,0,0,1-3.0671.707,7.2311,7.2311,0,0,1-2.5479-2.25q-2.3836-2.8916-4.7641-5.7832Z" transform="translate(-71.82 -76.5347)" fill="#e6d0e2"/>
  <path d="M664.7018,669.3524a2.9362,2.9362,0,0,0,3.7339,3.3877,5.1036,5.1036,0,0,0-.0819-3.2177,2.48,2.48,0,0,0-2.594-1.5625,1.6608,1.6608,0,0,0-1.0431,2.5087Z" transform="translate(-71.82 -76.5347)" fill="#e6d0e2"/>
  <path d="M236.6007,1272.8974a2.9349,2.9349,0,0,0,4.634,1.9843,5.0967,5.0967,0,0,0-1.126-3.0136,2.478,2.478,0,0,0-2.961-.6309,1.6606,1.6606,0,0,0-.169,2.7119Z" transform="translate(-71.82 -76.5347)" fill="#e6d0e2"/>
  <path d="M1667.92,990.72a10.1791,10.1791,0,0,0,7.9189,4.01q-.2895-3.753-.578-7.5078a6.7663,6.7663,0,0,0-.877-3.3926c-1.3179-1.9014-4.486-1.8154-6.038-.1a5.6671,5.6671,0,0,0-.386,6.4765Z" transform="translate(-71.82 -76.5347)" fill="#e6d0e2"/>
  <path d="M230.96,779.538q-5.5365.8936-11.075,1.7832c-1.065-1.59,1.069-3.3633,2.837-4.0947s3.668-1.4766,5.544-1.0958c1.875.3829,3.525,2.4209,2.764,4.1758Z" transform="translate(-71.82 -76.5347)" fill="#e6d0e2"/>
  <path d="M123.0363,1414.1571a6.3907,6.3907,0,0,0,6.832,2.2139,7.63,7.63,0,0,0-1.659-5.1055c-1.519-1.8887-4.398-2.9355-6.431-1.6162s-1.587,5.2734.828,5.4844Z" transform="translate(-71.82 -76.5347)" fill="#e6d0e2"/>
  <path d="M556.2267,1390.61a3.8011,3.8011,0,0,1-1.972-4.3115q2.8035-.4512,5.611-.9033a4.3778,4.3778,0,0,1-2.558,6.2793Z" transform="translate(-71.82 -76.5347)" fill="#e6d0e2"/>
  <path d="M427.9581,1303.7714q-1.059.4233-2.12.8476a12.1634,12.1634,0,0,1,.826-5.1572,4.1574,4.1574,0,0,1,4.193-2.5312c1.725.3222,2.824,2.749,1.577,3.9853a9.05,9.05,0,0,1-4.538,2.6074Z" transform="translate(-71.82 -76.5347)" fill="#e6d0e2"/>
  <path d="M664.97,684.5878c-1.143-.7481-2.652.5713-2.848,1.9238s.328,2.7119.276,4.0762a4.923,4.923,0,0,1-1.864,3.6377,2.3593,2.3593,0,0,1-2.281.5215,2.9076,2.9076,0,0,1-1.163-1.1348,14.7175,14.7175,0,0,1-2.957-7.4043c-.133-2.6895,1.157-5.59,3.617-6.6826a5.2923,5.2923,0,0,1,7.397,5.5439Z" transform="translate(-71.82 -76.5347)" fill="#e6d0e2"/>
  <path d="M314.8707,1253.6561c-1.325-.3349-2.322,1.4043-2.066,2.7471s1.193,2.457,1.589,3.7647a4.9193,4.9193,0,0,1-.575,4.0468,2.36,2.36,0,0,1-1.987,1.2373,2.936,2.936,0,0,1-1.468-.6923,14.7271,14.7271,0,0,1-5.211-6.0391c-1.002-2.499-.729-5.6611,1.241-7.4971a5.2935,5.2935,0,0,1,8.8,2.83Z" transform="translate(-71.82 -76.5347)" fill="#e6d0e2"/>
  <path d="M1304.4562,214.9657c1.366.0166,1.928-1.9082,1.365-3.1533s-1.7351-2.11-2.426-3.2891a4.9158,4.9158,0,0,1-.386-4.0674,2.361,2.361,0,0,1,1.6419-1.6679,2.93,2.93,0,0,1,1.591.3291,14.7364,14.7364,0,0,1,6.477,4.6523c1.559,2.1944,2.032,5.3321.547,7.58a5.2935,5.2935,0,0,1-9.218-.6943Z" transform="translate(-71.82 -76.5347)" fill="#e6d0e2"/>
  <path d="M1825.4152,737.7235a4.011,4.011,0,0,0,5.5539.085,5.7634,5.7634,0,0,0,1.3481-5.7373c-.2471-.878-.8941-1.8487-1.8-1.7451a2.2842,2.2842,0,0,0-1.422,1.13q-2.2229,3.1084-4.446,6.2129Z" transform="translate(-71.82 -76.5347)" fill="#e6d0e2"/>
  <path d="M145.276,1483.3417c-.701,2.5674,2.712,4.1455,5.337,4.59,1.644.2784,3.567.4756,4.757-.6933,1.599-1.5713.662-4.251-.364-6.2451q-1.3365-2.5972-2.673-5.1954c-.398-.7724-.896-1.6269-1.745-1.8173a2.8739,2.8739,0,0,0-2.122.6679,27.0108,27.0108,0,0,0-7.991,8.2627Z" transform="translate(-71.82 -76.5347)" fill="#e6d0e2"/>
  <path d="M734.1061,1131.3661a5.5585,5.5585,0,0,1,3.395-8.1348c1.156,2.4219,2.343,5.0244,1.9689,7.6827-.3729,2.6552-3.0409,5.1562-5.586,4.3027q-1.2059-2.0157-2.4119-4.0342Z" transform="translate(-71.82 -76.5347)" fill="#e6d0e2"/>
  <path d="M682.5787,662.3915q1.0933-.0162,2.186-.0322a4.6091,4.6091,0,0,0-.445-3.2657c-.6661-.9072-2.405-.9707-2.714.1114a2.303,2.303,0,0,0,.1179,1.249q.5625,1.9482,1.125,3.8994Z" transform="translate(-71.82 -76.5347)" fill="#e6d0e2"/>
  <path d="M1082.421,911.1747a13.19,13.19,0,0,0,5.1609,1.3281,4.51,4.51,0,0,0,4.265-2.6826,4.0026,4.0026,0,0,0-.0809-2.6123,4.9564,4.9564,0,1,0-9.1111,3.8652Z" transform="translate(-71.82 -76.5347)" fill="#e6d0e2"/>
  <path d="M1032.713,336.0975a10.1092,10.1092,0,0,0-4.296,1.6592,4.8337,4.8337,0,0,0-1.823,4.5576,4.0776,4.0776,0,0,0,1.25,2.1573,3.9566,3.9566,0,0,0,6.035-1.1182c1.29-2.2168.663-5.6494-1.287-7.041Z" transform="translate(-71.82 -76.5347)" fill="#e6d0e2"/>
  <path d="M205.1676,1421.88c-2.035,1.56-5.56-.2168-5.517-2.7783a10.047,10.047,0,0,1,3.16-2.7969,6.3855,6.3855,0,0,1,1.855,4.2Z" transform="translate(-71.82 -76.5347)" fill="#e6d0e2"/>
  <path d="M685.629,1121.2518q1.7895-.3515,3.5779-.706a6.4509,6.4509,0,0,0-.456-2.7373,3.436,3.436,0,0,0-3.8789,2.8408Z" transform="translate(-71.82 -76.5347)" fill="#e6d0e2"/>
  <path d="M186.72,515.5087c1.366.0166,1.93-1.9082,1.367-3.1524s-1.736-2.1113-2.426-3.2881a4.9135,4.9135,0,0,1-.387-4.0693,2.36,2.36,0,0,1,1.641-1.668,2.9262,2.9262,0,0,1,1.591.33,14.7191,14.7191,0,0,1,6.478,4.6524c1.559,2.1943,2.032,5.333.548,7.5791a5.2948,5.2948,0,0,1-9.219-.6934Z" transform="translate(-71.82 -76.5347)" fill="#e6d0e2"/>
  <path d="M215.4909,575.2714q-1.317,1.2627-2.634,2.5215a6.4507,6.4507,0,0,0,1.855,2.0634,3.438,3.438,0,0,0,1.742-4.4824Z" transform="translate(-71.82 -76.5347)" fill="#e6d0e2"/>
  <path d="M995.6085,365.6806c-.37,1.7626,1.021,3.3056,2.3089,4.3037,1.286.997,2.786,2.2343,2.77,4.0507a1.71,1.71,0,0,1-.5021,1.3057c-.8939.7217-1.906-.6191-2.849-1.249a10.094,10.094,0,0,0-2.487-.833,5.9822,5.9822,0,0,1-3.6-5.36,2.927,2.927,0,0,1,2.6319-1.9873,2.9589,2.9589,0,0,1,2.591,2.0645Z" transform="translate(-71.82 -76.5347)" fill="#e6d0e2"/>
  <path d="M1533.5382,1392.68a12.6879,12.6879,0,0,1-10.343,6.5674,2.3747,2.3747,0,0,1-1.519-.2959,2.6622,2.6622,0,0,1-.7531-2.2129c-.0869-4.7354.5531-10.6211,4.974-12.3174,3.8211-1.4649,8.515,2.417,7.7941,6.4463q-1.7415.9243-3.4821,1.8486Z" transform="translate(-71.82 -76.5347)" fill="#e6d0e2"/>
  <path d="M1500.8078,1774.3505a25.3235,25.3235,0,0,0,3.7819-10.8516,4.42,4.42,0,0,0-.088-1.8515,3.6154,3.6154,0,0,0-2.727-2.1309,7.4241,7.4241,0,0,0-7.647,3.2422,9.2039,9.2039,0,0,0-.58,8.4775,6.2044,6.2044,0,0,0,3.203,3.4834,3.4877,3.4877,0,0,0,4.264-1.27.7544.7544,0,0,0-1.256-.1533Z" transform="translate(-71.82 -76.5347)" fill="#fff"/>
  <path d="M1619.3331,1597.7733c1.477-23.5967-2.742,1.7129-1.008.2451Z" transform="translate(-71.82 -76.5347)" fill="#fff"/>
  <path d="M1871.8507,206.0663c.404-1.9932-24.905,2.2246-.0591.23Z" transform="translate(-71.82 -76.5347)" fill="#fff"/>
  <path d="M1457.1984,1295.3788c-.0241-.2393-.374-.3018-.5811-.1777s-.337.3476-.53.4912a.8707.8707,0,0,1-.707.1494.4216.4216,0,0,1-.3269-.2568.5094.5094,0,0,1,.0279-.2852,2.61,2.61,0,0,1,.689-1.2305,1.2215,1.2215,0,0,1,1.322-.2461.9362.9362,0,0,1,.059,1.6328Z" transform="translate(-71.82 -76.5347)" fill="#977bb8"/>
  <path d="M695.0529,678.22a3.2122,3.2122,0,0,0,1.2229,2.5557,3.3072,3.3072,0,0,0,.748-1.0742,1.1254,1.1254,0,0,0-.233-1.2168c-.4539-.3936-1.1489-.19-1.707.0322.065-.1524.13-.3057.195-.457Z" transform="translate(-71.82 -76.5347)" fill="#977bb8"/>
  <path d="M694.2145,676.8544c.3849.6914.72,1.6846.092,2.165-.602.4639-1.446-.0488-2.0221-.5459-.2479-.2129-.52-.4892-.4619-.8115.141-.7842,1.6829-.2861,1.9849-1.0225.227-.0371.33.3741.112.4473Z" transform="translate(-71.82 -76.5347)" fill="#977bb8"/>
  <path d="M925.962,552.56c-1.7581-.4511-3.317,1.1758-4.328,2.6827s-2.268,3.2646-4.083,3.2285a1.58,1.58,0,0,1-1.3-.6035c-.711-1.0616.6411-2.2422,1.28-3.3467a13.4287,13.4287,0,0,0,.86-2.9258,6.0876,6.0876,0,0,1,5.4021-4.1934,3.3524,3.3524,0,0,1-.135,6.1553Z" transform="translate(-71.82 -76.5347)" fill="#e6d0e2"/>
  <path d="M919.5675,634.0468c.132.7734-.672,1.46-1.457,1.4775a3.356,3.356,0,0,1-2.105-.9375,4.023,4.023,0,0,1-1.213-1.457,2.8082,2.8082,0,0,1,1.079-3.3116,3.5459,3.5459,0,0,1,3.595-.0546,2.2851,2.2851,0,0,1,1.18,1.3457,1.2494,1.2494,0,0,1-.732,1.498Z" transform="translate(-71.82 -76.5347)" fill="#e6d0e2"/>
  <path d="M804.5377,578.6288a5.5589,5.5589,0,0,1-8.6971,1.4365c1.441-2.2646,3.0181-4.65,5.469-5.7431s5.985-.1573,6.61,2.4531q-1.071,2.0947-2.14,4.1846Z" transform="translate(-71.82 -76.5347)" fill="#e6d0e2"/>
  <path d="M1396.03,1188.9882a10.9613,10.9613,0,0,0-9.6171-.97,11.28,11.28,0,0,0,1.799,4.085,3.85,3.85,0,0,0,3.962,1.4824c1.9511-.625,2.594-3.0117,2.9361-5.0332q.492.69.9859,1.378Z" transform="translate(-71.82 -76.5347)" fill="#e6d0e2"/>
  <path d="M1530.2775,1065.8388a4.2913,4.2913,0,0,0-2.739.3115,4.5158,4.5158,0,0,0-1.511,2.2031,41.4766,41.4766,0,0,1-3.5611,6.5059q5.94-1.7111,11.88-3.419a2.4546,2.4546,0,0,1,.967-.1416c1.133.1406,1.479,1.626,2.3551,2.3584,1.2789,1.0742,3.2369.2608,4.547-.7724,9.344-7.3672-6.86-6.502-11.938-7.0459" transform="translate(-71.82 -76.5347)" fill="#e6d0e2"/>
  <path d="M1339.6632,1266.6727c-1.937-.8173-3.5951,2.2618-2.492,4.0508s3.415,2.3194,5.483,2.6924a7.3674,7.3674,0,0,0-2.333-7.84Z" transform="translate(-71.82 -76.5347)" fill="#e6d0e2"/>
  <path d="M1316.9923,1279.5263a3.7406,3.7406,0,0,1-1.0851,6.7978c-.969.2393-2.275-.1709-2.3549-1.166a2.2815,2.2815,0,0,1,.358-1.1865q1.2735-2.4492,2.548-4.9014c.259.1885.5169.3809.776.5693Z" transform="translate(-71.82 -76.5347)" fill="#e6d0e2"/>
  <path d="M1421.3292,1289.5985q-.582.8716-1.164,1.7422a2.5375,2.5375,0,0,0,2.951,1.1533,2.1149,2.1149,0,0,0,1.163-2.8154,1.8116,1.8116,0,0,0-2.88-.3232Z" transform="translate(-71.82 -76.5347)" fill="#e6d0e2"/>
  <path d="M185.8966,560.22q.0225-1.0458.045-2.0947a2.54,2.54,0,0,0-3.109.6162,2.1157,2.1157,0,0,0,.534,2.999,1.8107,1.8107,0,0,0,2.602-1.2773Z" transform="translate(-71.82 -76.5347)" fill="#e6d0e2"/>
  <path d="M1387.423,1226.7274c-.729.041-1.4551.0821-2.1841.1211a4.6068,4.6068,0,0,0,.577,3.2451c.7011.8819,2.4411.8741,2.708-.22a2.31,2.31,0,0,0-.17-1.2422q-.639-1.9276-1.2789-3.8506Z" transform="translate(-71.82 -76.5347)" fill="#e6d0e2"/>
  <path d="M1708.6154,291.7958a46.5675,46.5675,0,0,0-11.6781,7.1875,2.5935,2.5935,0,0,0-.9941,1.3164,2.14,2.14,0,0,0,.5112,1.6592c2.828,3.8164,10.2649,3.4482,11.0629,8.1318.144.8447.045,1.8164.631,2.4414.974,1.041,2.7231.1123,3.631-.9873,4.764-5.7539,2.22-15.8672-4.699-18.6855l1.998-.6123Z" transform="translate(-71.82 -76.5347)" fill="#e6d0e2"/>
  <path d="M120.2858,758.6425a24.6861,24.6861,0,0,0-3.822,6.1884,1.3882,1.3882,0,0,0-.158.8623,1.14,1.14,0,0,0,.638.6641c2.248,1.1348,5.686-.8115,7.179,1.2178.269.3652.455.8506.881,1.0068.709.2608,1.317-.5957,1.485-1.333a6.6455,6.6455,0,0,0-6.678-7.7353c.267-.2569.534-.5108.801-.7666Z" transform="translate(-71.82 -76.5347)" fill="#e6d0e2"/>
  <path d="M902.6964,1356.27a10.9578,10.9578,0,0,0-6.059,7.5312,11.31,11.31,0,0,0,4.406.7217,3.8488,3.8488,0,0,0,3.403-2.5146c.54-1.9746-1.109-3.8155-2.617-5.2051.565-.0234,1.129-.05,1.694-.0752Z" transform="translate(-71.82 -76.5347)" fill="#e6d0e2"/>
  <path d="M317.1129,127.954a5.0067,5.0067,0,0,1,1.358-2.669c1.539,2.1016.93,5.0323.12,7.51-.451,1.3789-1.249,2.9854-2.698,3.0606-1.01.0527-1.867-.6963-2.829-1.0049-1.928-.6172-4.675.3008-5.622-1.49a2.4882,2.4882,0,0,1,.961-2.997,7.2465,7.2465,0,0,1,3.237-1.0391q3.7035-.57,7.406-1.1367Z" transform="translate(-71.82 -76.5347)" fill="#e6d0e2"/>
  <path d="M573.1339,231.1288a2.9363,2.9363,0,0,0-4.82,1.4766,5.1182,5.1182,0,0,0,2.807,1.5761,2.4841,2.4841,0,0,0,2.669-1.4316,1.6618,1.6618,0,0,0-1.622-2.18Z" transform="translate(-71.82 -76.5347)" fill="#e6d0e2"/>
  <path d="M851.8126,1310.8349a8.3742,8.3742,0,0,0-6.166,3.9111q2.7748,1.374,5.5509,2.75a5.5805,5.5805,0,0,0,2.766.8086c1.8991-.1328,3.173-2.4082,2.612-4.2285a4.6681,4.6681,0,0,0-4.417-2.9981Z" transform="translate(-71.82 -76.5347)" fill="#e6d0e2"/>
  <path d="M242.0314,77.1259a3.804,3.804,0,0,1,4.714.5127q-1.0455,2.6382-2.093,5.2832a4.38,4.38,0,0,1-4.088-5.41Z" transform="translate(-71.82 -76.5347)" fill="#e6d0e2"/>
  <path d="M122.1246,766.1571q.1785-1.1265.356-2.2549a12.1445,12.1445,0,0,1,4.008,3.3477,4.1529,4.1529,0,0,1,.032,4.8965c-1.159,1.3183-3.807,1.0215-4.23-.6807a9.0526,9.0526,0,0,1,.079-5.2344Z" transform="translate(-71.82 -76.5347)" fill="#e6d0e2"/>
  <path d="M1477.3937,388.5634c1.2279-.5987.865-2.57-.1961-3.4317-1.062-.8574-2.498-1.1035-3.645-1.8467a4.9272,4.9272,0,0,1-2.1729-3.4609,2.3662,2.3662,0,0,1,.7189-2.2285,2.9182,2.9182,0,0,1,1.569-.419,14.73,14.73,0,0,1,7.876,1.2461c2.379,1.2618,4.2111,3.8536,3.8931,6.5274a5.2924,5.2924,0,0,1-8.547,3.5195Z" transform="translate(-71.82 -76.5347)" fill="#e6d0e2"/>
  <path d="M223.025,694.6063c.965-.9668-.02-2.7129-1.304-3.18s-2.722-.23-4.048-.5585a4.913,4.913,0,0,1-3.182-2.5645,2.3575,2.3575,0,0,1-.048-2.34,2.936,2.936,0,0,1,1.347-.9082,14.7269,14.7269,0,0,1,7.853-1.3887c2.659.417,5.236,2.2676,5.808,4.9a5.2933,5.2933,0,0,1-6.932,6.1142Z" transform="translate(-71.82 -76.5347)" fill="#e6d0e2"/>
  <path d="M787.5167,1412.7362a3.2989,3.2989,0,0,0-2.3961,3.8916,4.7459,4.7459,0,0,0,3.4881,3.3682c.7249.1924,1.6829.1435,1.992-.5391a1.8835,1.8835,0,0,0-.201-1.4824q-1.2615-2.8784-2.5221-5.7568Z" transform="translate(-71.82 -76.5347)" fill="#e6d0e2"/>
  <path d="M521.3273,128.662a5.5585,5.5585,0,0,1,5.254,7.0771c-2.671-.2441-5.514-.5546-7.607-2.2343s-2.877-5.251-.842-7.001q2.3505-.0058,4.7-.0107Z" transform="translate(-71.82 -76.5347)" fill="#e6d0e2"/>
  <path d="M569.9728,250.05q-.5445.9507-1.0891,1.8965a4.6147,4.6147,0,0,0,3.0331,1.2881c1.1209-.1094,2.064-1.5713,1.292-2.3887a2.274,2.274,0,0,0-1.133-.5371q-1.9636-.5171-3.925-1.0293Z" transform="translate(-71.82 -76.5347)" fill="#e6d0e2"/>
  <path d="M268.1334,208.8749a13.1846,13.1846,0,0,0-3.78,3.7578,4.5094,4.5094,0,0,0,.125,5.0352,3.9906,3.9906,0,0,0,2.286,1.2666,4.9556,4.9556,0,1,0,1.337-9.8047Z" transform="translate(-71.82 -76.5347)" fill="#e6d0e2"/>
  <path d="M554.8107,92.1766q-.6107,1.72-1.2221,3.4375a6.4456,6.4456,0,0,0,2.5851,1.0069,3.4355,3.4355,0,0,0-.4581-4.7861Z" transform="translate(-71.82 -76.5347)" fill="#e6d0e2"/>
  <path d="M549.9923,252.6757a3.2122,3.2122,0,0,0-2.821-.2559,3.3326,3.3326,0,0,0,.539,1.1934,1.13,1.13,0,0,0,1.166.4209c.57-.1885.751-.89.845-1.4834.098.1347.195.2675.293.4013Z" transform="translate(-71.82 -76.5347)" fill="#977bb8"/>
  <path d="M551.5939,252.6532c-.791-.0215-1.814-.2412-1.9071-1.0273-.09-.7549.7821-1.2178,1.5021-1.459.31-.1045.6879-.1973.935.0176.601.5224-.615,1.5918-.1371,2.2295-.084.2148-.4909.0917-.4419-.1329Z" transform="translate(-71.82 -76.5347)" fill="#977bb8"/>
  <path d="M163.0607,1307.6766q.918.5025,1.838,1.0049a2.5392,2.5392,0,0,0,.883-3.0449,2.1143,2.1143,0,0,0-2.907-.9062,1.812,1.812,0,0,0-.064,2.8984Z" transform="translate(-71.82 -76.5347)" fill="#e6d0e2"/>
  <path d="M119.4938,971.7138c.119.7753-.697,1.4482-1.481,1.4511a3.3529,3.3529,0,0,1-2.089-.9717,4.0664,4.0664,0,0,1-1.19-1.4765,2.8106,2.8106,0,0,1,1.137-3.293,3.5437,3.5437,0,0,1,3.596.0059,2.2875,2.2875,0,0,1,1.157,1.3662,1.2483,1.2483,0,0,1-.758,1.4844Z" transform="translate(-71.82 -76.5347)" fill="#e6d0e2"/>
  <path d="M165.026,916.6405a13.3137,13.3137,0,0,0,4.933,10.6641,13.7364,13.7364,0,0,0,3.162-4.4092,4.6774,4.6774,0,0,0-.9-5.0625c-1.861-1.6553-4.757-.8525-7.082.0391q.417-.94.832-1.8838Z" transform="translate(-71.82 -76.5347)" fill="#e6d0e2"/>
  <path d="M291.5851,1126.122c-.363-2.0694-3.849-1.792-4.753.1054s-.095,4.128.715,6.0684a7.37,7.37,0,0,0,5.317-6.2168Z" transform="translate(-71.82 -76.5347)" fill="#e6d0e2"/>
  <path d="M268.484,1114.06a3.7383,3.7383,0,0,1-6.296,2.7784c-.729-.6817-1.093-2.0039-.301-2.61a2.28,2.28,0,0,1,1.19-.3428l5.501-.5205c-.019.3194-.039.64-.058.961Z" transform="translate(-71.82 -76.5347)" fill="#e6d0e2"/>
  <path d="M316.6666,1207.1532q-1.0485-.0176-2.095-.0322a2.5383,2.5383,0,0,0,.634,3.1045,2.1151,2.1151,0,0,0,2.995-.5508,1.811,1.811,0,0,0-1.291-2.5947Z" transform="translate(-71.82 -76.5347)" fill="#e6d0e2"/>
  <path d="M351.06,1144.5458q-.645-.8834-1.288-1.7676a4.6179,4.6179,0,0,0-2.412,2.2461c-.359,1.0674.592,2.5244,1.655,2.1553a2.3167,2.3167,0,0,0,.952-.8184q1.269-1.5806,2.539-3.165Z" transform="translate(-71.82 -76.5347)" fill="#e6d0e2"/>
  <path d="M1639.713,678.6913c-1.312.38-1.296,2.3848-.398,3.415.8959,1.0284,2.269,1.52,3.27,2.4493a4.9172,4.9172,0,0,1,1.542,3.7832,2.3578,2.3578,0,0,1-1.0921,2.0712,2.9268,2.9268,0,0,1-1.6179.1416,14.7119,14.7119,0,0,1-7.542-2.5869c-2.1261-1.6533-3.483-4.5215-2.71-7.1a5.293,5.293,0,0,1,9.0281-1.9922Z" transform="translate(-71.82 -76.5347)" fill="#e6d0e2"/>
  <path d="M1835.4826,552.4618a3.2949,3.2949,0,0,0-4.5621.2275,4.7378,4.7378,0,0,0-.805,4.7813c.251.707.834,1.4687,1.572,1.3369.506-.0908.834-.5693,1.1069-1.0049q1.6591-2.6674,3.32-5.3359Z" transform="translate(-71.82 -76.5347)" fill="#e6d0e2"/>
  <path d="M1833.3507,522.995a13.221,13.221,0,0,0-5.2361-.99,4.5075,4.5075,0,0,0-4.082,2.9521,3.9778,3.9778,0,0,0,.249,2.6006,4.956,4.956,0,1,0,8.8421-4.4443Z" transform="translate(-71.82 -76.5347)" fill="#e6d0e2"/>
  <path d="M1784.9865,608.4462q-1.7567.4556-3.51.9092c.7629,2.289,2.8159,4.3574,5.2279,4.2666s4.384-3.21,2.884-5.1006c-.928-1.168-2.855-2.63-1.671-3.5362Z" transform="translate(-71.82 -76.5347)" fill="#e6d0e2"/>
  <path d="M1681.7892,738.5526q.7125-.766,1.4269-1.5322a2.5421,2.5421,0,0,0-2.7339-1.6084,2.1121,2.1121,0,0,0-1.594,2.5928,1.8124,1.8124,0,0,0,2.7939.7783Z" transform="translate(-71.82 -76.5347)" fill="#e6d0e2"/>
  <path d="M1665.6486,692.289q.7138-.769,1.4259-1.5333a2.5408,2.5408,0,0,0-2.732-1.6083,2.112,2.112,0,0,0-1.594,2.5937,1.81,1.81,0,0,0,2.792.7773Z" transform="translate(-71.82 -76.5347)" fill="#e6d0e2"/>
  <path d="M1653.6007,730.289a1.4328,1.4328,0,0,1-1.842-.9522,3.339,3.339,0,0,1,.2689-2.2881,4.04,4.04,0,0,1,1.03-1.5918,2.8059,2.8059,0,0,1,3.4811.0469,3.5458,3.5458,0,0,1,1.1239,3.416,2.2908,2.2908,0,0,1-.938,1.5264,1.2452,1.2452,0,0,1-1.646-.2559Z" transform="translate(-71.82 -76.5347)" fill="#e6d0e2"/>
  <path d="M1570.7042,613.5868c-2.0471,2.7051-6.999,2.1621-8.4121-.9209-1.411-3.083,1.4131-7.1865,4.797-6.9707,3.385.2178,5.66,4.6494,3.8671,7.5273Z" transform="translate(-71.82 -76.5347)" fill="#e6d0e2"/>
</svg>
