<svg
    xmlns="http://www.w3.org/2000/svg"
    xmlns:xlink="http://www.w3.org/1999/xlink"
    width="39.264cm"
    height="27.7836cm"
    viewBox="0 0 1112.9943 787.5653"
>
    <defs>
        <linearGradient
            id="b2c7d235-3fb7-4645-9b39-713a973a242d"
            x1="987.8325"
            y1="533.4689"
            x2="1010.1327"
            y2="567.8522"
            gradientUnits="userSpaceOnUse"
        >
            <stop offset="0.0447" stop-color="#67686b" />
            <stop offset="0.0871" stop-color="#59595c" />
            <stop offset="0.2857" stop-color="#19191a" />
            <stop offset="0.379" />
            <stop offset="0.4346" stop-color="#040404" />
            <stop offset="0.4909" stop-color="#101010" />
            <stop offset="0.5476" stop-color="#232324" />
            <stop offset="0.6044" stop-color="#3e3f41" />
            <stop offset="0.6609" stop-color="#616265" />
            <stop offset="0.6691" stop-color="#67686b" />
            <stop offset="0.7531" stop-color="#404042" />
            <stop offset="0.841" stop-color="#1d1d1e" />
            <stop offset="0.9126" stop-color="#080808" />
            <stop offset="0.9585" />
        </linearGradient>
        <linearGradient
            id="a168497e-7a0c-415c-aca1-9f5d4e1bde63"
            x1="26.4992"
            y1="635.4686"
            x2="48.7994"
            y2="669.852"
            xlink:href="#b2c7d235-3fb7-4645-9b39-713a973a242d"
        />
        <linearGradient
            id="fb0ba9af-1a9c-474a-a3e2-e5e235a5ee67"
            x1="227.8325"
            y1="587.4689"
            x2="250.1327"
            y2="621.8522"
            xlink:href="#b2c7d235-3fb7-4645-9b39-713a973a242d"
        />
        <linearGradient
            id="a94fc940-7378-4e6b-a40b-2fac5d1e314f"
            x1="150.8325"
            y1="711.8022"
            x2="173.1327"
            y2="746.1856"
            xlink:href="#b2c7d235-3fb7-4645-9b39-713a973a242d"
        />
        <linearGradient
            id="ac7034d0-582d-4db1-afc4-8e5f5e5d9943"
            x1="105.1658"
            y1="512.7475"
            x2="127.466"
            y2="547.1309"
            xlink:href="#b2c7d235-3fb7-4645-9b39-713a973a242d"
        />
        <linearGradient
            id="ab1bfaba-9cc8-46f5-96d5-f11a1157fb6b"
            x1="856.1736"
            y1="590.1679"
            x2="878.4738"
            y2="624.5513"
            xlink:href="#b2c7d235-3fb7-4645-9b39-713a973a242d"
        />
        <linearGradient
            id="b2e94bcc-6c62-4baf-80ec-7429b4e6cbb6"
            x1="915.1658"
            y1="724.8022"
            x2="937.466"
            y2="759.1856"
            xlink:href="#b2c7d235-3fb7-4645-9b39-713a973a242d"
        />
        <linearGradient
            id="b355a300-9b20-4755-87c0-51202cbc9b37"
            x1="1048.8325"
            y1="666.4689"
            x2="1071.1327"
            y2="700.8522"
            xlink:href="#b2c7d235-3fb7-4645-9b39-713a973a242d"
        />
        <clipPath
            id="f9e377f2-e3a0-454f-b288-b0123dc1c99e"
            transform="translate(-383.0057 -138.433)"
        >
            <rect
                x="349.5491"
                y="315.5277"
                width="1171.2656"
                height="634.0734"
                fill="none"
            />
        </clipPath>
        <clipPath
            id="b13c6944-2fd0-4632-86c8-0c1f11c5a2fe"
            transform="translate(-383.0057 -138.433)"
        >
            <rect
                x="712.5194"
                y="354.8638"
                width="45.7526"
                height="26.1138"
                fill="none"
            />
        </clipPath>
        <clipPath
            id="b782aae3-5c61-4168-9cac-9e9189ea267e"
            transform="translate(-383.0057 -138.433)"
        >
            <rect
                x="581.9721"
                y="650.7647"
                width="107.366"
                height="171.4347"
                fill="none"
            />
        </clipPath>
        <clipPath
            id="ea9c8936-93c9-4fe1-a6db-c395850def20"
            transform="translate(-383.0057 -138.433)"
        >
            <rect
                x="1133.443"
                y="645.4807"
                width="120.1767"
                height="164.3894"
                fill="none"
            />
        </clipPath>
        <linearGradient
            id="a4657ef8-2b54-45ea-a6dc-6a874a7ab311"
            x1="404.4223"
            y1="599.3919"
            x2="719.2994"
            y2="1103.5702"
            gradientTransform="translate(330.5071 1693.0325) rotate(-135)"
            gradientUnits="userSpaceOnUse"
        >
            <stop offset="0" stop-color="#fff755" />
            <stop offset="0.0011" stop-color="#fff655" />
            <stop offset="0.0891" stop-color="#e4cb50" />
            <stop offset="0.1781" stop-color="#cea74d" />
            <stop offset="0.2674" stop-color="#bd8c4a" />
            <stop offset="0.357" stop-color="#b17848" />
            <stop offset="0.4471" stop-color="#a96c46" />
            <stop offset="0.5383" stop-color="#a76846" />
            <stop offset="0.5992" stop-color="#b68149" />
            <stop offset="0.765" stop-color="#ddc04f" />
            <stop offset="0.8862" stop-color="#f6e853" />
            <stop offset="0.9491" stop-color="#fff755" />
        </linearGradient>
        <linearGradient
            id="be6c50ea-0e97-49d4-95b0-6ca493cad579"
            x1="454.9364"
            y1="700.1137"
            x2="625.0655"
            y2="935.5973"
            gradientTransform="translate(326.1769 1695.4293) rotate(-135)"
            xlink:href="#b2c7d235-3fb7-4645-9b39-713a973a242d"
        />
        <linearGradient
            id="f51954cc-45e6-4738-b4ac-bfdfe5bbb999"
            x1="1052.6501"
            y1="1048.3954"
            x2="1367.5272"
            y2="1552.5736"
            gradientTransform="translate(1296.2808 2486.2909) rotate(-135)"
            xlink:href="#a4657ef8-2b54-45ea-a6dc-6a874a7ab311"
        />
        <linearGradient
            id="bc41120a-d7a2-4baa-b289-0d2029b31650"
            x1="1103.1642"
            y1="1149.1171"
            x2="1273.2933"
            y2="1384.6008"
            gradientTransform="translate(1290.8563 2487.4134) rotate(-135)"
            xlink:href="#b2c7d235-3fb7-4645-9b39-713a973a242d"
        />
        <linearGradient
            id="e0d05a75-3652-4f96-9cc6-a3aebb939bc2"
            x1="884.3276"
            y1="487.2337"
            x2="924.661"
            y2="487.2337"
            gradientUnits="userSpaceOnUse"
        >
            <stop offset="0" stop-color="#3f0030" />
            <stop offset="0.3439" />
            <stop offset="0.5503" stop-color="#29002a" />
            <stop offset="0.6836" stop-color="#260027" />
            <stop offset="0.7922" stop-color="#1c001d" />
            <stop offset="0.8918" stop-color="#0b000c" />
            <stop offset="0.9419" />
        </linearGradient>
        <linearGradient
            id="a76c191e-af8f-4e2a-87a1-2f5654495036"
            x1="964.068"
            y1="304.9209"
            x2="792.1534"
            y2="217.1729"
            xlink:href="#e0d05a75-3652-4f96-9cc6-a3aebb939bc2"
        />
        <linearGradient
            id="ee2c8969-44ce-41c0-b67d-80d250b09059"
            x1="831.4255"
            y1="374.8063"
            x2="848.6753"
            y2="374.8063"
            gradientTransform="translate(-73.7021 135.9252) rotate(-9.3254)"
            gradientUnits="userSpaceOnUse"
        >
            <stop offset="0" stop-color="#77ac5b" />
            <stop offset="0.4223" stop-color="#76aa5b" />
            <stop offset="0.6581" stop-color="#73a25b" />
            <stop offset="0.8474" stop-color="#6e945a" />
            <stop offset="1" stop-color="#67825a" />
        </linearGradient>
        <linearGradient
            id="ac87051e-d396-40ac-b463-04f3ad2c498f"
            x1="767.3528"
            y1="368.2642"
            x2="811.74"
            y2="368.2642"
            gradientTransform="matrix(0.869, 0.1116, -0.1322, 1.0298, 163.736, -102.175)"
            xlink:href="#ee2c8969-44ce-41c0-b67d-80d250b09059"
        />
        <linearGradient
            id="b009e0fc-80c1-4100-ab22-b32d5a6a3338"
            x1="846.9925"
            y1="395.9095"
            x2="876.2726"
            y2="395.9095"
            gradientTransform="matrix(0.7846, -0.3901, 0.4622, 0.9297, -82.8568, 334.4167)"
            xlink:href="#ee2c8969-44ce-41c0-b67d-80d250b09059"
        />
        <linearGradient
            id="e33bf2b6-a156-4a4b-8c17-ef83ae14f9a1"
            x1="777.3643"
            y1="392.6579"
            x2="820.4958"
            y2="392.6579"
            gradientTransform="matrix(0.9841, -0.1777, 0.1777, 0.9841, -84.1356, 143.0549)"
            xlink:href="#ee2c8969-44ce-41c0-b67d-80d250b09059"
        />
        <linearGradient
            id="acafde5b-992b-4569-b47c-6c28ea8c33de"
            x1="610.7808"
            y1="423.9155"
            x2="638.2495"
            y2="423.9155"
            gradientTransform="matrix(-0.9615, -0.2747, -0.2747, 0.9615, 1541.1006, 155.0108)"
            xlink:href="#ee2c8969-44ce-41c0-b67d-80d250b09059"
        />
        <linearGradient
            id="aa602f27-ceb8-4e05-944e-6f7d8e78e5fd"
            x1="793.0375"
            y1="239.9697"
            x2="605.7042"
            y2="-21.3636"
            gradientUnits="userSpaceOnUse"
        >
            <stop offset="0" stop-color="#fff755" />
            <stop offset="0.0757" stop-color="#d3c451" />
            <stop offset="0.1515" stop-color="#ae984e" />
            <stop offset="0.2283" stop-color="#8f744b" />
            <stop offset="0.3052" stop-color="#785949" />
            <stop offset="0.3823" stop-color="#674547" />
            <stop offset="0.4598" stop-color="#5c3946" />
            <stop offset="0.5383" stop-color="#593546" />
            <stop offset="0.6763" stop-color="#99804c" />
            <stop offset="0.8062" stop-color="#d0c051" />
            <stop offset="0.9002" stop-color="#f2e854" />
            <stop offset="0.9491" stop-color="#fff755" />
        </linearGradient>
        <linearGradient
            id="e11ac3ef-b635-4cf1-b1fe-0614c356a6ce"
            x1="1089.1456"
            y1="461.1178"
            x2="1089.1456"
            y2="607.126"
            gradientTransform="translate(24.0734 16.3874) rotate(-0.8133)"
            gradientUnits="userSpaceOnUse"
        >
            <stop offset="0" stop-color="#d4a7a1" />
            <stop offset="0.0463" stop-color="#d4a7a1" />
            <stop offset="0.08" stop-color="#d8afaa" />
            <stop offset="0.2015" stop-color="#e5c6c3" />
            <stop offset="0.3364" stop-color="#efd8d7" />
            <stop offset="0.4899" stop-color="#f6e5e5" />
            <stop offset="0.6779" stop-color="#faedee" />
            <stop offset="1" stop-color="#fbeff0" />
        </linearGradient>
        <linearGradient
            id="ec99a72c-a6e6-43e8-b163-f9880e59408c"
            x1="1094.1036"
            y1="496.3131"
            x2="1152.397"
            y2="496.3131"
            gradientTransform="translate(24.0734 16.3874) rotate(-0.8133)"
            gradientUnits="userSpaceOnUse"
        >
            <stop offset="0" stop-color="#b97e74" />
            <stop offset="0.0149" stop-color="#ba8178" />
            <stop offset="0.1193" stop-color="#c3958f" />
            <stop offset="0.2386" stop-color="#caa5a1" />
            <stop offset="0.3822" stop-color="#ceb0ae" />
            <stop offset="0.5729" stop-color="#d1b6b5" />
            <stop offset="1" stop-color="#d2b8b7" />
        </linearGradient>
        <linearGradient
            id="f3523962-35ee-42a6-9a9b-366791823a99"
            x1="-16.0068"
            y1="351.6709"
            x2="165.3265"
            y2="467.0042"
            xlink:href="#e0d05a75-3652-4f96-9cc6-a3aebb939bc2"
        />
        <linearGradient
            id="f5113b5b-08f0-4e35-bca5-c2f520eb9013"
            x1="177.9278"
            y1="308.521"
            x2="8.5945"
            y2="475.8543"
            xlink:href="#e0d05a75-3652-4f96-9cc6-a3aebb939bc2"
        />
        <linearGradient
            id="edf2d66c-d265-4b98-b910-63b7a14b0215"
            x1="332.5759"
            y1="323.835"
            x2="167.2426"
            y2="511.835"
            xlink:href="#e0d05a75-3652-4f96-9cc6-a3aebb939bc2"
        />
        <linearGradient
            id="f4964b9b-6271-4b9c-8297-798cf82416bb"
            x1="118.6451"
            y1="292.901"
            x2="249.4746"
            y2="434.3722"
            xlink:href="#e0d05a75-3652-4f96-9cc6-a3aebb939bc2"
        />
        <linearGradient
            id="aa5cdcba-2416-480e-8e3b-63b22197a941"
            x1="118.2268"
            y1="363.7277"
            x2="249.9312"
            y2="506.1449"
            xlink:href="#e0d05a75-3652-4f96-9cc6-a3aebb939bc2"
        />
    </defs>
    <title>market_hub</title>
    <g style="isolation: isolate">
        <g id="b4b6f11a-a33f-4d39-9fe1-94f1ace39039" data-name="Layer 1">
            <circle
                cx="996.3276"
                cy="546.567"
                r="7"
                fill="url(#b2c7d235-3fb7-4645-9b39-713a973a242d)"
            />
            <circle
                cx="34.9943"
                cy="648.5668"
                r="7"
                fill="url(#a168497e-7a0c-415c-aca1-9f5d4e1bde63)"
            />
            <circle
                cx="236.3276"
                cy="600.567"
                r="7"
                fill="url(#fb0ba9af-1a9c-474a-a3e2-e5e235a5ee67)"
            />
            <circle
                cx="159.3276"
                cy="724.9004"
                r="7"
                fill="url(#a94fc940-7378-4e6b-a40b-2fac5d1e314f)"
            />
            <circle
                cx="113.661"
                cy="525.8457"
                r="7"
                fill="url(#ac7034d0-582d-4db1-afc4-8e5f5e5d9943)"
            />
            <circle
                cx="864.6687"
                cy="603.2661"
                r="7"
                fill="url(#ab1bfaba-9cc8-46f5-96d5-f11a1157fb6b)"
            />
            <circle
                cx="923.661"
                cy="737.9004"
                r="7"
                fill="url(#b2e94bcc-6c62-4baf-80ec-7429b4e6cbb6)"
            />
            <circle
                cx="1057.3276"
                cy="679.567"
                r="7"
                fill="url(#b355a300-9b20-4755-87c0-51202cbc9b37)"
            />
            <polygon
                points="166.328 508.107 216.994 494.329 216.994 512.332 166.328 508.107"
                fill="#492036"
            />
            <polygon
                points="972.765 514.18 942.994 495.504 1015.836 509.199 972.765 514.18"
                fill="#492036"
            />
            <polygon
                points="559.998 515.643 540.994 504.842 605.811 513.483 559.998 515.643"
                fill="#542940"
            />
            <polygon
                points="281.245 468.078 303.494 474.817 289.994 467.116 281.245 468.078"
                fill="#492036"
            />
            <g clip-path="url(#f9e377f2-e3a0-454f-b288-b0123dc1c99e)">
                <polygon
                    points="1094.359 500.117 972.765 514.18 899.133 518.565 747.618 506.797 494.383 518.737 382.453 519.112 119.691 505.732 80.483 501.089 20.435 493.978 2.719 487.923 0 484.901 0.276 484.877 2.157 484.716 136.53 473.211 317.596 466.789 313.158 462.695 835.977 466.194 1100.278 494.576 1094.359 500.117"
                    fill="#e2a1af"
                />
                <polygon
                    points="176.548 558.89 376.955 558.887 498.555 551.803 584.277 560.741 492.597 568.956 380.68 571.492 176.548 558.89"
                    fill="#eab5c3"
                />
                <g clip-path="url(#f9e377f2-e3a0-454f-b288-b0123dc1c99e)">
                    <polygon
                        points="0.256 489.652 28.965 539.373 59.95 554.914 91.835 560.107 120.001 554.389 125.062 536.459 23.021 505.757 5.239 490.125 0.256 489.652"
                        fill="#7b486f"
                    />
                    <polygon
                        points="120.001 554.389 131.234 575.532 130.948 580.978 224.098 613.952 380.91 619.872 404.504 628.083 425.762 647.191 584.057 630.013 548.64 565.23 500.285 572.219 424.654 565.618 391.105 566.942 125.062 536.459 120.001 554.389"
                        fill="#7a4643"
                    />
                    <polygon
                        points="130.948 580.978 129.969 599.876 194.031 636.959 378.169 641.9 404.504 628.083 380.91 619.872 224.097 613.952 130.948 580.978"
                        fill="#592f47"
                    />
                    <polygon
                        points="129.969 599.876 242.957 691.441 275.829 674.091 378.17 641.9 194.031 636.958 129.969 599.876"
                        fill="#7a4643"
                    />
                    <polygon
                        points="242.957 691.441 275.829 674.091 378.169 641.9 404.504 628.083 385.309 644.355 305.854 675.434 281.674 690.766 242.957 691.441"
                        fill="#542940"
                    />
                    <polygon
                        points="424.654 565.618 500.285 572.219 548.64 565.23 753.702 520.78 503.032 562.525 424.654 565.618"
                        fill="#7b486f"
                    />
                    <polygon
                        points="548.64 565.23 584.057 630.013 693.275 617.134 753.702 520.78 548.64 565.23"
                        fill="#542940"
                    />
                    <polygon
                        points="584.057 630.012 505.276 641.011 425.762 647.192 342.157 707.104 347.699 710.585 404.951 708.021 424.58 710.869 524.586 684.57 693.275 617.134 584.057 630.012"
                        fill="#a05c90"
                    />
                    <polygon
                        points="347.699 710.585 390.892 739.919 485.569 781.446 511.506 782.162 531.989 759.662 524.586 684.569 424.58 710.868 404.951 708.021 347.699 710.585"
                        fill="#7a4643"
                    />
                    <polygon
                        points="524.586 684.57 693.275 617.134 699.801 720.394 531.989 759.662 524.586 684.57"
                        fill="#5e3150"
                    />
                    <polygon
                        points="699.801 720.393 525.876 784.371 485.569 781.446 511.506 782.162 531.989 759.662 699.801 720.393"
                        fill="#492036"
                    />
                    <polygon
                        points="753.702 520.78 693.275 617.134 698.352 697.454 759.981 681.339 870.679 617.392 908.044 549.961 753.702 520.78"
                        fill="#a05c90"
                    />
                    <polygon
                        points="698.351 697.454 759.981 681.339 872.118 614.795 962.992 581.574 1006.097 577.528 976.306 588.807 898.131 669.088 827.124 674.055 752.647 694.611 698.351 697.454"
                        fill="#50263a"
                    />
                    <polygon
                        points="908.044 549.961 872.117 614.795 962.992 581.574 1006.097 577.528 1100.677 494.818 1101.091 494.131 1092.573 493.749 980.72 535.209 908.044 549.961"
                        fill="#492036"
                    />
                    <polygon
                        points="898.131 669.088 827.124 674.054 752.647 694.611 698.352 697.454 699.801 720.393 525.876 784.371 563.709 787.565 827.754 704.988 898.131 669.088"
                        fill="#542a40"
                    />
                    <polygon
                        points="365.18 722.457 526.798 707.004 529.639 735.829 433.298 759.478 365.18 722.457"
                        fill="#a96cae"
                    />
                    <polygon
                        points="526.798 707.003 696.065 661.277 696.534 668.702 529.639 735.829 526.798 707.003"
                        fill="#985e94"
                    />
                    <polygon
                        points="696.065 661.277 803.782 604.793 893.322 576.528 874.887 609.797 831.021 618.701 696.535 668.701 696.065 661.277"
                        fill="#8e578e"
                    />
                    <polygon
                        points="874.887 609.797 934.538 587.35 1031.03 555.725 1061.743 528.867 893.323 576.529 874.887 609.797"
                        fill="#764277"
                    />
                    <polygon
                        points="457.12 769.653 531.148 751.136 531.988 759.661 490.66 768.051 471.56 775.683 457.12 769.653"
                        fill="#a96cae"
                    />
                    <polygon
                        points="531.148 751.135 697.473 683.554 697.856 689.617 531.989 759.661 531.148 751.135"
                        fill="#985e94"
                    />
                    <polygon
                        points="697.473 683.554 817.05 648.372 808.798 653.139 697.856 689.617 697.473 683.554"
                        fill="#8e578e"
                    />
                    <polygon
                        points="817.05 648.372 965.962 599.429 954.262 609.541 808.798 653.139 817.05 648.372"
                        fill="#764277"
                    />
                    <polygon
                        points="125.062 536.459 120.001 554.389 91.834 560.107 59.95 554.914 85.491 555.072 84.754 524.331 125.062 536.459"
                        fill="#50273b"
                    />
                    <polygon
                        points="584.057 630.012 425.762 647.192 505.276 641.011 584.057 630.012"
                        fill="#955182"
                    />
                    <polygon
                        points="84.754 524.331 84.754 501.594 20.434 493.978 2.718 487.923 0 484.901 0.256 489.652 30.51 519.208 84.754 524.331"
                        fill="#7b486f"
                    />
                    <polygon
                        points="84.754 501.595 84.754 524.331 125.062 536.459 131.694 506.343 84.754 501.595"
                        fill="#50273b"
                    />
                    <polygon
                        points="131.694 506.343 125.062 536.459 391.105 566.942 500.285 572.219 548.64 565.23 521.787 517.444 494.383 518.736 382.454 519.113 208.046 510.232 131.694 506.343"
                        fill="#7a4643"
                    />
                    <polygon
                        points="753.702 520.78 760.792 507.82 747.617 506.797 521.787 517.444 548.64 565.23 753.702 520.78"
                        fill="#542940"
                    />
                    <polygon
                        points="760.792 507.82 899.133 518.565 932.025 516.606 908.044 549.961 753.702 520.78 760.792 507.82"
                        fill="#a05c90"
                    />
                    <polygon
                        points="932.025 516.606 908.044 549.961 980.72 535.21 1066.79 503.306 972.765 514.18 932.025 516.606"
                        fill="#492036"
                    />
                </g>
            </g>
            <path
                d="M1039.0514,609.4677s-19.4979,5.3675-20.7747,10.2S1074.65,623.5,1102.0748,635.5l27.5483,9.7305,74.8831,5.8154,76.6324,5.9518,66.9841-3.9887,75.1448-8.3178,25.5282-2.9524,25.7828-9.5572-219.0233-22.7138-37.573-4.8405-88.17-2.1918Z"
                transform="translate(-383.0057 -138.433)"
                fill="#ba7083"
            />
            <polygon
                points="588.494 495.504 595.494 483.542 611.591 483.542 623.994 489.523 605.811 502.067 588.494 495.504"
                fill="#7b486f"
            />
            <polygon
                points="603.494 487.745 605.811 502.067 623.994 489.523 611.591 483.542 603.494 487.745"
                fill="#492036"
            />
            <polygon
                points="595.494 483.542 603.494 487.745 611.591 483.542 595.494 483.542"
                fill="#7a4643"
            />
            <polygon
                points="508.493 464.002 529.244 473.567 531.244 478.067 531.244 469.086 508.493 464.002"
                fill="#492036"
            />
            <polygon
                points="15.656 492.345 52.494 490.817 21.494 494.329 15.656 492.345"
                fill="#492036"
            />
            <g>
                <rect
                    x="431.0477"
                    y="674.2855"
                    width="176.631"
                    height="176.631"
                    rx="22"
                    transform="translate(1058.3444 588.9764) rotate(122.0706)"
                    fill="url(#a4657ef8-2b54-45ea-a6dc-6a874a7ab311)"
                />
                <rect
                    x="446.4539"
                    y="693.5904"
                    width="142.8149"
                    height="142.8149"
                    rx="22"
                    transform="translate(1058.0763 593.9184) rotate(122.0706)"
                    fill="url(#be6c50ea-0e97-49d4-95b0-6ca493cad579)"
                />
                <g>
                    <image
                        width="176"
                        height="292"
                        transform="translate(77.8598 546.9282) rotate(-5.5243) scale(0.5805)"
                        xlink:href="market_hub1.png"
                    />
                    <path
                        d="M509.17,698.5215l3.1245,12.8174a27.7727,27.7727,0,0,1,13.8647,2.0245q5.8455,2.6633,12.2366,9.5567l-11.0139,10.2368q-8.3063-9.0586-17.5921-6.7971a14.173,14.173,0,0,0-8.7183,5.7284,11.2628,11.2628,0,0,0-1.7208,9.4261,10.7687,10.7687,0,0,0,4.9549,6.9672q3.74,2.2757,13.9008,4.1636a125.287,125.287,0,0,1,14.729,3.58,35.8828,35.8828,0,0,1,9.2726,4.217,28.1777,28.1777,0,0,1,12.093,17.49,31.79,31.79,0,0,1-1.8881,21.2444,33.2183,33.2183,0,0,1-14.883,15.6834l3.3,13.5369-11.4442,2.79L526.18,818.0421q-13.3267,1.0317-21.7047-4.0614t-15.01-18.3726l13.6534-6.5154q5.3665,9.2232,10.6532,12.4368,5.4353,2.9716,12.825,1.1693a17.19,17.19,0,0,0,10.901-7.5759,16.1285,16.1285,0,0,0,1.8887-13.0008,14.3437,14.3437,0,0,0-6.524-9.4258,38.1557,38.1557,0,0,0-7.0281-2.8245,105.9,105.9,0,0,0-11.371-2.7357q-14.074-2.5962-19.2261-6.3982a26.9476,26.9476,0,0,1-11.1365-24.6518,24.6746,24.6746,0,0,1,2.5555-8.4174,27.8014,27.8014,0,0,1,5.6351-7.4351,38.9181,38.9181,0,0,1,8.5577-6.1048l-3.1244-12.8174Z"
                        transform="translate(-383.0057 -138.433)"
                        fill="#eeffeb"
                    />
                </g>
            </g>
            <g>
                <rect
                    x="1255.9485"
                    y="691.6843"
                    width="176.631"
                    height="176.631"
                    rx="22"
                    transform="translate(2504.6863 823.983) rotate(156.6163)"
                    fill="url(#f51954cc-45e6-4738-b4ac-bfdfe5bbb999)"
                />
                <g>
                    <rect
                        x="1270.2605"
                        y="709.7149"
                        width="142.8149"
                        height="142.8149"
                        rx="22"
                        transform="translate(2500.1528 827.1663) rotate(156.6163)"
                        fill="url(#bc41120a-d7a2-4baa-b289-0d2029b31650)"
                    />
                    <g>
                        <image
                            width="940"
                            height="1289"
                            transform="matrix(0.1498, 0.0068, -0.0068, 0.1498, 900.4603, 548.1493)"
                            xlink:href="market_hub2.png"
                        />
                        <path
                            d="M1313.2669,852.6718a9.4513,9.4513,0,0,1-4.1705-2.7749,11.7208,11.7208,0,0,1-2.4154-8.53,20.0086,20.0086,0,0,1,.7888-4.4763,2.3562,2.3562,0,0,1,1.6406-1.5455,2.5429,2.5429,0,0,1,2.2645.4858c.0313.0256,3.1748,2.5809,6.784,5.0456a53.72,53.72,0,0,0,4.9329,3.0492c-1.3565-1.0748-3.0174-2.261-4.7633-3.5075a81.6325,81.6325,0,0,1-9.0974-7.1378,15.6148,15.6148,0,0,1-3.1378-3.9881,5.7355,5.7355,0,0,1-.3726-4.9839l.021-.0491a2.9179,2.9179,0,0,1,2.0024-1.6344c2.3584-.5653,5.0783,1.2526,12.8794,7.0244,2.8111,2.081,5.7191,4.2319,8.2583,5.8544.5609.3589,1.0618.6632,1.5078.9229q-.3742-.3312-.8276-.7112c-2.0654-1.7274-4.7035-3.6386-7.4953-5.6621-3.3846-2.4524-6.8836-4.9878-9.4239-7.2736-2.48-2.2314-5.1813-5.166-4.0476-8.08a3.4205,3.4205,0,0,1,2.3566-2.1066c1.8108-.4869,4.0621.2582,7.7714,2.5714,2.65,1.6531,5.7965,3.9576,8.8385,6.1867,2.7685,2.0283,5.6313,4.1259,8.0252,5.66,1.1449.7333,2.0209,1.2315,2.6835,1.57a18.87,18.87,0,0,0-1.5287-1.3985c-1.79-1.4891-4.2356-3.1723-6.8258-4.9543-5.2294-3.5986-11.1561-7.6778-14.5267-12.0883a13.3849,13.3849,0,0,1-3.11-7.8808,23.5329,23.5329,0,0,1,1.23-7.0789,36.0214,36.0214,0,0,0,1.0832-18.0842c-3.2306-8.58-4.6051-16.7585-4.0872-24.3129a36.9547,36.9547,0,0,1,6.5608-19.1372,35.2644,35.2644,0,0,1,14.0914-11.6213,45.6642,45.6642,0,0,1,19.4136-4.0805l.0088,0a39.383,39.383,0,0,1,10.2771,1.5453,47.8049,47.8049,0,0,1,11.6988,5.0134,40.5687,40.5687,0,0,1,18.4385,23.3364l.0065.022a42.0236,42.0236,0,0,1,1.6819,16.7445,31.484,31.484,0,0,1-4.88,13.4526c-4.5319,6.9939-11.9659,12.8518-22.7263,17.9079a26.1563,26.1563,0,0,0-4.956,3.6936,63.0026,63.0026,0,0,0-11.3306,14.2039,10.708,10.708,0,0,1-5.7088,4.5707c-3.6058,1.2033-8.04.0255-11.6064-3.0828a8.8649,8.8649,0,0,1-1.9961-2.2616,7.5788,7.5788,0,0,1-.8181-6.4245l.0067-.0241c.0552-.1676,5.5-16.8676,7.7586-23.4178.6151-1.782-1.3216-4.76-3.0291-7.3864a33.9971,33.9971,0,0,1-2.6772-4.6131,6.9132,6.9132,0,0,1-.1384-5.2117,6.0593,6.0593,0,0,1,2.92-3.392c.0429-.02.0868-.0388.1315-.056a4.9293,4.9293,0,0,1,5.1612.57,8.5532,8.5532,0,0,1,2.14,2.9134c.118.2255.2688.5106.4117.7547.28-.3468.6044-.8194.8321-1.1511a11.8012,11.8012,0,0,1,2.81-3.1621,6.0518,6.0518,0,0,1,9.1428,3.6595,10.7068,10.7068,0,0,1-.0934,3.7366c-.015.0949-.0305.2005-.0467.31.4552-.2022.9565-.46,1.3-.6354a15.137,15.137,0,0,1,3.0571-1.2939,4.6247,4.6247,0,0,1,4.43.9031l.0156.0145a5.7418,5.7418,0,0,1,1.99,5.2564c-.719,4.7153-6.9671,8.8242-9.2336,9.83-4.9493,2.3769-11.0469,1.4781-11.3047,1.4389a2.4649,2.4649,0,0,1-2.1064-2.7369,2.3892,2.3892,0,0,1,2.7628-1.99c.0484.0065,4.8677.6973,8.4188-1.024.0294-.0142.06-.0284.09-.0414,2.0346-.8857,6.1811-4.1465,6.5063-6.28a.84.84,0,0,0-.2009-.7521,13.3686,13.3686,0,0,0-2.0556.918c-1.7353.89-3.8657,1.9818-5.9881,1.25a4.4916,4.4916,0,0,1-.4869-.2014,3.8445,3.8445,0,0,1-2.1869-3.2234,10.3239,10.3239,0,0,1,.1717-2.54c.3547-2.341.1347-2.44-.3962-2.6772-.535-.24-.6629-.15-.8579-.0145a8.6747,8.6747,0,0,0-1.627,1.9736,14.3559,14.3559,0,0,1-1.6644,2.1227,4.4152,4.4152,0,0,1-6.7181-.22,10.98,10.98,0,0,1-1.3409-2.1191,9.177,9.177,0,0,0-.7311-1.2386c-.0367.0091-.08.022-.1331.04a2.2832,2.2832,0,0,0-.46,2.4786,30.3108,30.3108,0,0,0,2.2982,3.9109c2.302,3.5417,4.9121,7.5553,3.555,11.49-2.2187,6.4333-7.5452,22.7673-7.729,23.33a2.9191,2.9191,0,0,0,.316,2.5295,4.1033,4.1033,0,0,0,.8035.94q.0944.0688.1816.1457c2.1984,1.9373,4.8487,2.769,6.752,2.1186.0386-.0126.0767-.0246.116-.036a6.0319,6.0319,0,0,0,2.979-2.453l.0149-.0249c9.1661-15.1543,17.9035-19.5272,18.2712-19.7056l.0295-.0145c21.5108-10.0985,28.96-23.6289,23.4429-42.5814-5.7839-19.1552-24.9006-26.33-35.5947-26.353-12.6265.0171-23.3933,5.0059-29.5384,13.6876-7.0441,9.9527-7.7043,23.9144-1.8579,39.3136a2.3487,2.3487,0,0,1,.1146.41,40.5987,40.5987,0,0,1-1.1359,20.3857c-1.2824,4.6024-1.9264,6.912,1.0564,10.8149,2.8884,3.7793,8.4647,7.6169,13.3841,11.0026,6.384,4.3935,10.996,7.5676,11.4532,11.118a4.2075,4.2075,0,0,1-1.1361,3.4757c-.7343.7991-2.1331,1.5936-4.6245.8443a19.2059,19.2059,0,0,1-4.1006-1.9575c-2.8253-1.6861-6.2874-4.222-9.6345-6.6742-2.7563-2.02-5.6065-4.1074-7.9862-5.634-.5488-.352-1.0362-.65-1.4669-.9016.414.4.9149.8551,1.5223,1.3732,2.2765,1.9415,5.3,4.1328,8.2247,6.2513,3.4172,2.4767,6.6456,4.8163,8.9885,6.9322a16.087,16.087,0,0,1,2.9428,3.2983c1.3722,2.23.7426,3.8223.245,4.5723a3.678,3.678,0,0,1-2.528,1.5836c-3.5057.5592-8.706-3.1288-16.9-9.1921-1.9937-1.4755-3.8863-2.8762-5.521-3.9936q.23.2376.4917.4926a78.4389,78.4389,0,0,0,8.5148,6.6517,79.8958,79.8958,0,0,1,6.6356,5.0618,11.6463,11.6463,0,0,1,2.2425,2.55,3.8043,3.8043,0,0,1,.3207,3.8583,3.7226,3.7226,0,0,1-2.6937,1.9416,6.9679,6.9679,0,0,1-3.6827-.4489,38.1815,38.1815,0,0,1-8.4415-4.657c-1.4579-.99-2.8334-1.9879-3.9905-2.8525a7.06,7.06,0,0,0,1.2727,4.8431c1.2888,1.49,3.7753,2.0288,7.39,1.6022a2.5113,2.5113,0,0,1,2.7839,2.0877,2.3446,2.3446,0,0,1-2.0861,2.6621,17.3564,17.3564,0,0,1-7.6682-.5613"
                            transform="translate(-383.0057 -138.433)"
                            fill="#fbf8cd"
                        />
                    </g>
                </g>
            </g>
            <polygon
                points="151.057 507.329 177.328 498.766 172.3 489.234 179.994 498.766 162.723 507.923 151.057 507.329"
                fill="#492036"
            />
            <polygon
                points="907.661 510.9 963.328 509.199 958.662 502.067 924.661 495.504 907.661 510.9"
                fill="#99596b"
            />
            <polyline
                points="623.994 489.523 640.276 495.504 636.271 502.067 605.811 502.067"
                fill="#ba7083"
            />
            <polygon
                points="300.494 492.805 317.633 502.067 284.221 503.401 300.494 494.131 300.494 492.805"
                fill="#99596b"
            />
            <polyline
                points="248.949 480.523 292.37 514.525 310.994 515.317 270.189 486.192 248.949 480.523"
                fill="#99596b"
            />
            <polygon
                points="284.221 503.401 289.994 487.745 300.494 502.067 284.221 503.401"
                fill="#492036"
            />
            <polygon
                points="300.494 492.805 300.494 502.067 289.994 487.745 300.494 492.805"
                fill="#7b486f"
            />
            <polyline
                points="248.949 480.523 266.244 512.817 292.37 514.525 259.865 487.745 248.949 480.523"
                fill="#99596b"
            />
            <polyline
                points="57.325 486.248 69.244 499.817 125.232 505.689 85.841 491.916 57.325 486.248"
                fill="#99596b"
            />
            <path
                d="M1129.6231,645.23l48.0556-1.9556,104.6546,9.9508,104-7.9456,37.9342-3.5649L1449,637.6667s15-5-12.3333-10l37.9118,4.5148-25.7828,9.5572-57.4377,6.4845-110.2194,8.7744Z"
                transform="translate(-383.0057 -138.433)"
                fill="#e2a1af"
            />
            <polygon
                points="1015.836 509.199 991.994 500.067 970.994 500.067 999.994 495.504 1026.173 508.809 1015.836 509.199"
                fill="#492036"
            />
            <polygon
                points="812.494 490.817 832.903 497.067 847.994 508.317 850.566 514.793 849.815 504.842 835.214 497.067 812.494 490.817"
                fill="#492036"
            />
            <polyline
                points="85.841 491.916 259.865 487.745 248.949 480.523 76.244 482.317 85.841 491.916"
                fill="#99596b"
            />
            <polygon
                points="728.744 503.899 762.744 502.351 794.673 504.842 741.472 507.087 728.744 503.899"
                fill="#e2a1af"
            />
            <polygon
                points="870.144 469.863 954.994 479.434 871.069 485.949 870.144 469.863"
                fill="#99596b"
            />
            <polygon
                points="884.328 497.9 907.661 510.9 924.661 495.504 899.328 463.567 886.328 463.567 884.328 497.9"
                fill="url(#e0d05a75-3652-4f96-9cc6-a3aebb939bc2)"
            />
            <polygon
                points="896.994 475.301 886.328 463.567 884.328 497.9 907.661 510.9 896.994 475.301"
                fill="#542940"
            />
            <polygon
                points="899.328 463.567 886.328 463.567 896.994 475.301 899.328 463.567"
                fill="#764277"
            />
            <path
                d="M667.2269,606.1839l56.287,26.38s19.5515,15.817,5.5188,23.1263l25.3006,1.588S766,633.4469,683.5,605.5487Z"
                transform="translate(-383.0057 -138.433)"
                fill="#ba7083"
            />
            <path
                d="M710.7829,638.0371s86.33,21.38,156.9587,1.1744C867.7416,639.2115,783.2629,605.8223,710.7829,638.0371Z"
                transform="translate(-383.0057 -138.433)"
                fill="#99596b"
            />
            <path
                d="M826.3936,602.4354c18.29,1.8453,37.3919,5.0527,54.4327,12.1129,4.96,2.0551,19.3408,6.9779,15.7894,14.638-1.07,2.3086-3.3826,3.8042-5.7568,4.72s-4.9061,1.3764-7.27,2.3188c-4.6414,1.8507-12.7585,8.3634-10.6341,14.27,3.2031,8.903,22.7013,6.5474,29.9194,6.5029,53.7923-.3309,1.9184-1.1207,1.9184-1.1207l41.2511-1.9447S871.1606,657,897.4137,640.5c0,0,22.92-22.5,56.5863-27.1669L996.75,603.14s-78.2128-2.7691-170.3564-.7045"
                transform="translate(-383.0057 -138.433)"
                fill="#ba7083"
            />
            <polygon
                points="468.244 512.332 490.744 504.842 499.244 487.745 502.994 487.745 499.744 490.317 492.494 507.067 468.244 512.332"
                fill="#492036"
            />
            <polygon
                points="519.869 518.565 521.787 517.444 552.176 516.012 538.462 547.116 519.869 518.565"
                fill="#542940"
            />
            <polygon
                points="519.869 518.565 536.022 502.067 530.661 517.605 519.869 518.565"
                fill="#542940"
            />
        </g>
        <g data-name="Layer 4">
            <g>
                <text
                    id="hub-title"
                    transform="translate(204.0429 708.3986)"
                    font-size="129.621"
                    fill="#fff"
                    font-family="atmospheric, aAtmospheric, a Atmospheric"
                    letter-spacing="-0.002em"
                >
                    MARKET
                </text>
            </g>
        </g>
        <g id="f27c42cc-dd5f-423f-8804-1385e62d3baa" data-name="Layer 5">
            <polygon
                points="1072.319 105.332 1048.815 91.09 857.109 91.15 857.109 110.399 1072.319 105.332"
                fill="#a05c90"
            />
            <polyline
                points="832.35 166.663 833.909 474.008 848.657 485.949 871.069 485.949 871.069 17.517 848.657 17.517"
                fill="url(#a76c191e-af8f-4e2a-87a1-2f5654495036)"
            />
            <polygon
                points="840.865 1 518.942 1 463.557 84.178 476.634 98.104 534.308 18.517 848.71 18.517 840.865 1"
                fill="#231f20"
            />
            <polygon
                points="518.942 1 534.308 18.517 476.634 98.104 463.557 84.178 518.942 1"
                fill="#545456"
            />
            <polygon
                points="832.35 167.663 849.815 167.663 849.815 486.949 834.02 475.008 832.35 167.663"
                fill="#333132"
            />
            <polygon
                points="871.135 105.332 1072.319 105.332 1109.224 170.037 1071.864 226.59 871.135 226.59 871.135 105.332"
                fill="#764277"
            />
            <path
                d="M1282.7875,243.7646s-8.7619,125.3486,172.0823,121.2579H1254.1409V243.7646Z"
                transform="translate(-383.0057 -138.433)"
                fill="#592f47"
            />
            <path
                d="M908.9316,367.9l2.5477,11.342a24.4841,24.4841,0,0,1,12.1819,2.0041q5.1078,2.44,10.6276,8.6149l-9.867,8.8422q-7.1718-8.1142-15.3881-6.2689a12.4848,12.4848,0,0,0-7.7727,4.907,9.9249,9.9249,0,0,0-1.6659,8.2764,9.4867,9.4867,0,0,0,4.2533,6.2173q3.26,2.0631,12.1793,3.8892a110.48,110.48,0,0,1,12.9183,3.3888,31.638,31.638,0,0,1,8.1016,3.8637,24.8262,24.8262,0,0,1,10.3741,15.6,28.0128,28.0128,0,0,1-2.0025,18.685,29.2684,29.2684,0,0,1-13.3622,13.5785l2.6913,11.9779-10.1266,2.2749-2.6125-11.63q-11.7579.6959-19.0565-3.9246t-12.93-16.4256l12.1326-5.5219q4.58,8.2125,9.1859,11.1269,4.74,2.7053,11.2793,1.2356a15.1454,15.1454,0,0,0,9.7242-6.5,14.2124,14.2124,0,0,0,1.8709-11.4231,12.6327,12.6327,0,0,0-5.5964-8.4069,33.54,33.54,0,0,0-6.1467-2.6,93.1887,93.1887,0,0,0-9.9726-2.5919q-12.3576-2.5118-16.8358-5.9435a23.7434,23.7434,0,0,1-9.4162-21.8946,21.7254,21.7254,0,0,1,2.385-7.3739,24.5369,24.5369,0,0,1,5.0832-6.4611,34.3242,34.3242,0,0,1,7.6361-5.24l-2.5477-11.3416Z"
                transform="translate(-383.0057 -138.433)"
                fill="#f4e40d"
            />
            <g>
                <path
                    d="M821.727,353.9473s-12.5369,1.703-15.1993,12.9642,9.7667,17.4317,9.7667,17.4317c7.56-.7039,12.9833-9.3614,6.0464-15.1557-2.2973-1.919-5.1589-2.8613-5.5256-6.1585C816.4385,359.642,819.2411,355.92,821.727,353.9473Z"
                    transform="translate(-383.0057 -138.433)"
                    fill="url(#ee2c8969-44ce-41c0-b67d-80d250b09059)"
                />
                <path
                    d="M808.6922,400.2391c7.1982-3.0861,10.3471-13.5457,9.6887-20.95-.6889-7.7493-4.46-14.9149-9.0262-21.2135-6.03-8.3165-14.4559-17.94-8.4273-28.6931-2.2776,4.0624-6.2557,7.6656-9,11.4657a103.082,103.082,0,0,0-8.8633,14.3717c-4.41,8.8743-7.7817,19.8576-3.3023,29.376,4.4934,9.5479,13.1469,15.93,23.8337,16.5145A11.2237,11.2237,0,0,0,808.6922,400.2391Z"
                    transform="translate(-383.0057 -138.433)"
                    fill="url(#ac87051e-d396-40ac-b463-04f3ad2c498f)"
                />
                <path
                    d="M793.3672,383.3578s5.1381-12.7643-9.0843-20.7021-17.728-3.08-21.6076-15.8767c0,0-4.0087,30.8,8.6507,38.421S793.3672,383.3578,793.3672,383.3578Z"
                    transform="translate(-383.0057 -138.433)"
                    fill="url(#b009e0fc-80c1-4100-ab22-b32d5a6a3338)"
                />
                <path
                    d="M746.5349,386.9665c.0007,0,8.4156,4.8185,14.8781-1.1772,0,0,5.224-6.91,16.3555-10.9162,9.9342-3.5755,19.1488,6.3656,13.6384,15.8482a10.9561,10.9561,0,0,1-2.1487,2.5634c-4.3875,3.9842-10.657,5.3585-16.5718,4.9864-6.6041-.4156-15.1665-2.341-20.9172-5.7695C749.5856,391.2,748.4525,388.0646,746.5349,386.9665Z"
                    transform="translate(-383.0057 -138.433)"
                    fill="url(#e33bf2b6-a156-4a4b-8c17-ef83ae14f9a1)"
                />
                <path
                    d="M840.2307,392.3025s-5.6384,2.52-9.3537-1.6889a23.7979,23.7979,0,0,0-9.6726-7.9541c-6.0686-2.8954-12.5379,2.82-9.647,9.1786a6.9794,6.9794,0,0,0,1.1992,1.7606c2.5279,2.8028,6.4137,4.0711,10.1855,4.21,4.2113.1552,9.7593-.5223,13.6208-2.33C838.0291,394.7918,838.9458,392.8768,840.2307,392.3025Z"
                    transform="translate(-383.0057 -138.433)"
                    fill="url(#acafde5b-992b-4569-b47c-6c28ea8c33de)"
                />
                <path
                    d="M834.4446,350.4534s18.6772,15.5859,23.128,44.6158S834.4446,350.4534,834.4446,350.4534Z"
                    transform="translate(-383.0057 -138.433)"
                    fill="#fff"
                />
                <path
                    d="M869.4286,479.2345c.2037-.6492.3881-1.3068.5339-1.978.9457-4.3532-.3-8.9843,1.1022-13.2623a12.0754,12.0754,0,0,1,2.45-4.5839,5.4846,5.4846,0,0,1,4.6559-1.8584c2.7657.4177,4.4132,3.4082,4.8711,6.19s.1735,5.7028,1.1018,8.3625c-.8827-2.5289,4.1026-8.343,5.6673-9.9234,2.808-2.8361,6.1282-5.05,10.2339-4.774,10.8912.7334,15.3556,9.85,13.0169,19.8821-2.7694,11.88-12.2279,19.3852-23.8412,21.694-7.91,1.5725-18.5789.8461-21.4888-8.2753C866.3949,486.518,868.24,483.0216,869.4286,479.2345Z"
                    transform="translate(-383.0057 -138.433)"
                    fill="#fff"
                />
                <path
                    d="M859.0582,608.5778s-7.5508-16.877-47.6028,0l8.1858,28.7231,42.7.9574S869.5637,620.919,859.0582,608.5778Z"
                    transform="translate(-383.0057 -138.433)"
                    fill="#fff"
                />
                <path
                    d="M802.92,588.6857v48.2594l61.7195,1.3132c-5.4334-.108-13.5907-5.5462-18.329-8.148-7.2612-3.9872-18.1266-10.3921-18.8516-19.6655-.2285-2.9226.6661-5.8032,1.55-8.5982a111.34,111.34,0,0,1,5.5024-14.8438,45.0635,45.0635,0,0,1,3.91-6.7327c1.0572-1.4749,4.7259-4.1264,5.1508-5.6517.8159-2.9293-2.052-1.5215-4.5445-.81-10.7858,3.0778-21.1984,8.15-31.4036,12.74Q805.2677,587.6075,802.92,588.6857Z"
                    transform="translate(-383.0057 -138.433)"
                    fill="#c7a8c6"
                />
                <path
                    d="M716.8962,607.5185s7.5508-16.877,47.6028,0l-8.1858,28.7231-42.7.9574S706.3907,619.86,716.8962,607.5185Z"
                    transform="translate(-383.0057 -138.433)"
                    fill="#fff"
                />
                <polygon
                    points="355.505 334.906 319.729 373.357 348.619 425.556 355.505 334.906"
                    fill="#fff"
                />
                <path
                    d="M797.5,378.6527s-48.3858-10.15-59.3787,101.499c0,0,44.4168,41.7274,99.9348,15.7888C838.0559,495.9405,855.0679,385.4193,797.5,378.6527Z"
                    transform="translate(-383.0057 -138.433)"
                    fill="#faf181"
                />
                <path
                    d="M798.0165,379.9671c-6.8846-.7619-15.5432,4.1865-20.1057,8.9158-5.9619,6.18-6.7621,14.9333-8.7459,22.9177-6.6532,26.778-18.3863,78.9643,16.1121,92.4318,0,0-32.3231-2.5353-48.5688-23.0958,0,0,8.9012-60.009,19.4976-74.5667,3.4483-4.7374,5.5921-9.9359,9.7929-14.3094C774.3692,383.5458,785.8429,378.62,798.0165,379.9671Z"
                    transform="translate(-383.0057 -138.433)"
                    fill="#d2b771"
                />
                <path
                    d="M738.2718,474.899l-27.0794,96.3127s70.2552,39.3954,95.54,36.1125,58.43-35.4559,58.43-35.4559l-24.9257-89.9189c-45.6083,38.7729-101.7265-8.61-101.7265-8.61"
                    transform="translate(-383.0057 -138.433)"
                    fill="#fff"
                />
                <path
                    d="M736.549,472.3948l-26.2637,98.8169s66.57,36.7072,84.9708,36.2827c0,0,14.2359,8.2888,43.5876-12.848,0,0-86.0268-6.6917-68.0613-99.9275l-.2682-2.57Z"
                    transform="translate(-383.0057 -138.433)"
                    fill="#c7abc4"
                />
                <path
                    d="M773.0347,587.6264v48.26l-61.72,1.3131c5.4334-.1079,13.5907-5.5462,18.329-8.148,7.2612-3.9871,18.1266-10.3921,18.8516-19.6655.2285-2.9225-.6661-5.8031-1.55-8.5981a111.3353,111.3353,0,0,0-5.5024-14.8438,45.0676,45.0676,0,0,0-3.91-6.7328c-1.0573-1.4749-4.726-4.1264-5.1509-5.6517-.8159-2.9293,2.052-1.5214,4.5445-.81,10.7858,3.0779,21.1984,8.15,31.4037,12.74Q770.6867,586.5483,773.0347,587.6264Z"
                    transform="translate(-383.0057 -138.433)"
                    fill="#c7a8c6"
                />
                <path
                    d="M790.3918,418.96c2.4914-.5008,3.8656,4.96,3.24,10.0037s-6.2212,3.7093-7.0129-.23,1.8033-9.3783,3.7728-9.7741"
                    transform="translate(-383.0057 -138.433)"
                    fill="#0f0e18"
                />
                <path
                    d="M817.7131,418.5574c2.4915-.5007,3.8657,4.96,3.24,10.0038s-6.2212,3.7092-7.0129-.23,1.8033-9.3782,3.7727-9.7741"
                    transform="translate(-383.0057 -138.433)"
                    fill="#0f0e18"
                />
                <path
                    d="M793.22,413.909l-2.1908,1.9826s-4.1039-1.5995-6.0864-3.79,7.6858-.3136,8.2772,1.8077"
                    transform="translate(-383.0057 -138.433)"
                    fill="#0f0e18"
                />
                <path
                    d="M812.9691,414.6729l5.4041-.5753s2.3265-1.2381,1.1386-3.0925-6.5427,3.6678-6.5427,3.6678"
                    transform="translate(-383.0057 -138.433)"
                    fill="#0f0e18"
                />
                <path
                    d="M910.1512,461.9988s-4.53,25.1693-31.45,31.4069l8.2074,7.5508s19.1342-4.4866,24.8329-19.4788C911.7411,481.4777,916.98,468.6743,910.1512,461.9988Z"
                    transform="translate(-383.0057 -138.433)"
                    fill="#c7abc4"
                />
                <polygon
                    points="514.408 368.761 510.112 358.99 499.98 333.914 481.263 328.071 431.517 361.785 455.003 399.742 464.75 392.534 468.775 399.742 514.408 368.761"
                    fill="#fff"
                />
                <path
                    d="M714.9807,370.4678c-12.9558,20.7257-18.7077,45.6768-10.5942,67.677,15.872,43.0377,75.236,66.3744,117.3327,56.1261,20.809-5.0659,35.3141-17.8034,44.84-37.1536a88.3939,88.3939,0,0,0,8.4394-28.4708c7.7165-64.5449-47.8539-123.2859-113.8463-98.102C743.2186,337.3885,726.3338,352.3058,714.9807,370.4678Z"
                    transform="translate(-383.0057 -138.433)"
                    fill="#fff"
                    opacity="0.13"
                />
                <path
                    d="M858.661,408.0445c-.1594.4837,9.1118,9.2153,2.4092,10.15C856.1133,418.886,858.0075,410.0266,858.661,408.0445Z"
                    transform="translate(-383.0057 -138.433)"
                    fill="#fff"
                />
            </g>
            <g>
                <image
                    width="940"
                    height="1289"
                    transform="matrix(0.1187, -0.0573, 0.0573, 0.1187, 534.5796, 283.3642)"
                    xlink:href="market_hub6.png"
                />
                <path
                    d="M1010.0494,537.8128a8.31,8.31,0,0,1-4.3856-.4034,10.3041,10.3041,0,0,1-5.433-5.5881,17.5886,17.5886,0,0,1-1.2607-3.7922,2.0716,2.0716,0,0,1,.6232-1.8811,2.2352,2.2352,0,0,1,1.9545-.5705c.035.0066,3.5344.6694,7.3562,1.0675a47.2286,47.2286,0,0,0,5.09.297c-1.4985-.2645-3.2789-.4878-5.15-.7224a71.7847,71.7847,0,0,1-10.02-1.719,13.7275,13.7275,0,0,1-4.0938-1.7735,5.0431,5.0431,0,0,1-2.3712-3.6993l-.0042-.0468a2.5652,2.5652,0,0,1,.8658-2.101c1.588-1.4229,4.4515-1.1535,12.8979.0507,3.0441.4348,6.1923.8833,8.8345,1.077.5839.0433,1.0985.0693,1.552.0838-.2853-.0665-.5971-.1349-.9374-.2043-2.32-.4729-5.1588-.8487-8.164-1.2471-3.6429-.4825-7.4089-.9813-10.3292-1.6876-2.8511-.6895-6.1668-1.8306-6.5075-4.5581a3.0076,3.0076,0,0,1,.9424-2.6144c1.1972-1.1334,3.25-1.4979,7.0858-1.2588,2.741.171,6.1377.6386,9.4223,1.0915,2.989.4119,6.08.838,8.5728,1.0241,1.1921.0887,2.0779.1079,2.732.0931a16.5858,16.5858,0,0,0-1.7669-.4428c-2.0068-.4038-4.602-.6837-7.35-.98-5.5488-.598-11.838-1.2763-16.2884-3.2791a11.7684,11.7684,0,0,1-5.6995-4.7959,20.6937,20.6937,0,0,1-2.0072-5.99,31.6686,31.6686,0,0,0-6.72-14.4409,50.9717,50.9717,0,0,1-13.3225-17.0978,32.4906,32.4906,0,0,1-2.923-17.5446,31.0036,31.0036,0,0,1,6.0428-14.8783,40.1469,40.1469,0,0,1,13.3111-11.27l.007-.0034a34.627,34.627,0,0,1,8.5952-3.1,42.0314,42.0314,0,0,1,11.1442-1.0114,35.6673,35.6673,0,0,1,24.015,10.3449l.0142.0143a36.9433,36.9433,0,0,1,8.2989,12.2489,27.6791,27.6791,0,0,1,1.8478,12.445c-.5825,7.3037-3.8845,14.9417-10.0946,23.35a22.9915,22.9915,0,0,0-2.29,4.9283,55.3891,55.3891,0,0,0-2.8281,15.7221,9.4136,9.4136,0,0,1-2.5055,5.9212c-2.2862,2.4378-6.208,3.38-10.266,2.4661a7.796,7.796,0,0,1-2.4891-.9152,6.6629,6.6629,0,0,1-3.3178-4.6273l-.0049-.0215c-.0273-.1527-2.7954-15.3455-3.7856-21.3562-.269-1.6355-3.0114-3.1292-5.43-4.4475a29.8837,29.8837,0,0,1-3.9988-2.4493,6.0785,6.0785,0,0,1-2.2852-3.9735,5.3269,5.3269,0,0,1,.8413-3.8441c.0248-.0334.0509-.0663.0782-.0983a4.3341,4.3341,0,0,1,4.23-1.7162,7.5216,7.5216,0,0,1,2.8732,1.359c.1854.1252.4213.2826.6338.4117.0714-.385.1251-.8863.1626-1.238a10.3735,10.3735,0,0,1,.8519-3.62,5.3206,5.3206,0,0,1,8.6014-.99,9.4134,9.4134,0,0,1,1.4893,2.9294c.0281.08.06.1677.0935.2592.2675-.3466.5478-.7551.74-1.0346a13.2973,13.2973,0,0,1,1.8239-2.2785,4.0653,4.0653,0,0,1,3.804-1.1528l.0181.0046a5.0482,5.0482,0,0,1,3.7361,3.2342c1.4145,3.9478-1.7012,9.7373-3.034,11.4625-2.835,3.907-7.9271,5.76-8.1429,5.8375a2.167,2.167,0,0,1-2.7731-1.2367,2.1006,2.1006,0,0,1,1.3055-2.6935c.04-.0153,4.0567-1.495,6.0841-4.31.0168-.0233.0346-.0471.0519-.07,1.2036-1.5354,3.0482-5.7905,2.4081-7.5767a.7386.7386,0,0,0-.47-.4978,11.76,11.76,0,0,0-1.2063,1.5692c-.97,1.4135-2.1619,3.1485-4.11,3.4693a3.94,3.94,0,0,1-.4608.0477,3.38,3.38,0,0,1-3.0386-1.5793,9.0747,9.0747,0,0,1-.9289-2.0366c-.704-1.9591-.9154-1.9434-1.4253-1.9053-.5143.0376-.5755.1609-.67.3473a7.6286,7.6286,0,0,0-.4336,2.2066,12.63,12.63,0,0,1-.4,2.3375,3.8818,3.8818,0,0,1-5.2885,2.6374,9.6523,9.6523,0,0,1-1.9228-1.0787,8.0607,8.0607,0,0,0-1.0831-.6525c-.0246.0223-.053.0506-.0864.0864a2.0074,2.0074,0,0,0,.68,2.1093,26.6393,26.6393,0,0,0,3.4122,2.0647c3.2606,1.7774,6.957,3.7911,7.5514,7.4014.9725,5.9033,3.6789,20.7638,3.7718,21.2756a2.5665,2.5665,0,0,0,1.3015,1.8245,3.6113,3.6113,0,0,0,1.0144.3914c.0679.0092.1348.0215.2013.0368,2.51.58,4.9078.1154,6.1081-1.1831.0247-.0259.0491-.0511.0748-.0763a5.3037,5.3037,0,0,0,1.279-3.1424l.0011-.0255c.7567-15.5526,5.6875-22.5866,5.8974-22.8783l.0167-.0236c12.4182-16.801,12.5251-30.38.3372-42.7341-12.4793-12.3993-30.2645-9.96-38.5461-5.5081-9.7594,5.29-16.0026,13.6488-17.1275,22.9323-1.2892,10.6423,4.0352,21.7176,14.9931,31.1855a2.0639,2.0639,0,0,1,.26.2691,35.6941,35.6941,0,0,1,7.6411,16.243c.9315,4.0959,1.3986,6.1515,5.3369,7.9239,3.8136,1.7161,9.7307,2.3541,14.9509,2.917,6.7741.73,11.6681,1.258,13.5055,3.8131a3.6993,3.6993,0,0,1,.5738,3.1633c-.2339.925-.9839,2.1241-3.2242,2.5858a16.89,16.89,0,0,1-3.99.2c-2.89-.1235-6.6278-.6381-10.2416-1.136-2.9761-.41-6.0532-.834-8.5319-1.02-.5716-.0429-1.0731-.07-1.5114-.0843.4872.1361,1.065.2791,1.7514.4259,2.5722.55,5.8269.9817,8.9743,1.3981,3.6783.4876,7.1533.9481,9.85,1.6055a14.1463,14.1463,0,0,1,3.6547,1.3214,3.54,3.54,0,0,1,2.1,3.4343,3.2337,3.2337,0,0,1-1.2936,2.2814c-2.478,1.8977-8.0417,1.2184-16.9141-.047-2.1588-.3081-4.2081-.6005-5.9395-.7817q.2773.0876.5862.1756a68.9668,68.9668,0,0,0,9.3661,1.5866,70.2036,70.2036,0,0,1,7.2481,1.142,10.2415,10.2415,0,0,1,2.8,1.0353,3.345,3.345,0,0,1,1.8605,2.85,3.2731,3.2731,0,0,1-1.2721,2.6276,6.1264,6.1264,0,0,1-3.0362,1.1919,33.5723,33.5723,0,0,1-8.4758-.0743c-1.5414-.1565-3.0225-.3535-4.2788-.5386a6.2078,6.2078,0,0,0,3.0085,3.2142c1.6195.6138,3.7681-.0085,6.3859-1.8493a2.208,2.208,0,0,1,3.0259.4514,2.0613,2.0613,0,0,1-.501,2.9309,15.26,15.26,0,0,1-6.166,2.7706"
                    transform="translate(-383.0057 -138.433)"
                    fill="#fbf8cd"
                />
            </g>
            <polygon
                points="548.054 0 560.994 19.886 584.994 19.886 573.661 0 548.054 0"
                fill="#ffcf01"
            />
            <polygon
                points="612.994 0 625.935 19.886 649.935 19.886 638.601 0 612.994 0"
                fill="#ffcf01"
            />
            <polygon
                points="736.795 0.816 749.736 20.701 773.736 20.701 762.402 0.816 736.795 0.816"
                fill="#ffcf01"
            />
            <polygon
                points="676.324 1 689.265 20.886 713.265 20.886 701.931 1 676.324 1"
                fill="#ffcf01"
            />
            <polygon
                points="797.792 0.816 810.733 20.701 834.733 20.701 823.399 0.816 797.792 0.816"
                fill="#ffcf01"
            />
            <polygon
                points="508.055 18.517 524.403 35.025 511.977 50.552 496.278 34.535 508.055 18.517"
                fill="#ffe443"
            />
            <polygon
                points="482.488 57.055 498.836 73.562 486.41 89.09 470.711 73.072 482.488 57.055"
                fill="#ffe443"
            />
            <polygon
                points="871.069 33.535 849.12 51.549 849.12 74.072 871.069 58.055 871.069 33.535"
                fill="#db9815"
            />
            <polygon
                points="871.963 203.048 850.013 221.063 850.013 243.586 871.963 227.569 871.963 203.048"
                fill="#db9815"
            />
            <polygon
                points="870.963 147.692 849.013 165.706 849.013 188.229 870.963 172.212 870.963 147.692"
                fill="#db9815"
            />
            <polygon
                points="871.069 90.94 849.12 108.955 849.12 131.478 871.069 115.46 871.069 90.94"
                fill="#db9815"
            />
            <polygon
                points="871.963 370.174 850.013 388.189 850.013 410.712 871.963 394.694 871.963 370.174"
                fill="#db9815"
            />
            <polygon
                points="871.069 315.392 849.12 333.406 849.12 355.929 871.069 339.912 871.069 315.392"
                fill="#db9815"
            />
            <polygon
                points="870.963 260.609 849.013 278.624 849.013 301.147 870.963 285.129 870.963 260.609"
                fill="#db9815"
            />
            <polygon
                points="870.963 424.956 849.013 442.971 849.013 465.494 870.963 449.476 870.963 424.956"
                fill="#db9815"
            />
            <polygon
                points="849.013 187.229 832.35 173.567 832.35 166.663 849.12 167.032 849.013 187.229"
                fill="#ffe443"
            />
            <polygon
                points="849.12 18.886 534.719 18.886 477.044 98.473 535.429 168.032 849.12 168.032 849.12 18.886"
                fill="url(#aa602f27-ceb8-4e05-944e-6f7d8e78e5fd)"
            />
            <text
                x="-383.0057"
                y="-138.433"
                font-size="30.7515"
                font-family="atmospheric, aAtmospheric, a Atmospheric"
            >
                <tspan x="518.7479" y="128.7589">CONSTRUCTION</tspan>
            </text>
            <polygon
                points="850.013 221.063 832.35 205.9 832.35 228.06 850.013 243.586 850.013 221.063"
                fill="#ffe443"
            />
            <polygon
                points="849.566 278.925 831.903 263.762 831.903 285.922 849.566 301.448 849.566 278.925"
                fill="#ffe443"
            />
            <polygon
                points="850.566 442.649 832.903 427.486 832.903 449.645 850.566 465.172 850.566 442.649"
                fill="#ffe443"
            />
            <polygon
                points="850.013 387.763 832.35 372.6 832.35 394.759 850.013 410.286 850.013 387.763"
                fill="#ffe443"
            />
            <polygon
                points="849.566 332.877 831.903 317.714 831.903 339.873 849.566 355.4 849.566 332.877"
                fill="#ffe443"
            />
            <text
                transform="translate(540.1763 86.0724)"
                font-size="47.9194"
                font-family="atmospheric, aAtmospheric, a Atmospheric"
            >
                under
            </text>
            <g>
                <path
                    d="M1211.0118,517.4593c.2007-.6727.3813-1.354.5219-2.0487.912-4.5054-.4415-9.2654.943-13.7a12.4616,12.4616,0,0,1,2.4607-4.7656,5.6591,5.6591,0,0,1,4.7767-1.9856c2.86.39,4.6033,3.4519,5.1166,6.3152s.2625,5.8816,1.2592,8.6122c-.9477-2.5964,4.1109-8.6683,5.7022-10.3218,2.8558-2.9674,6.2491-5.3008,10.4893-5.0757,11.2482.5972,15.988,9.9381,13.7219,20.3235-2.6834,12.2981-12.3327,20.18-24.2814,22.7328-8.1381,1.7384-19.1571,1.1452-22.2931-8.2235C1207.9884,525.0188,1209.841,521.3842,1211.0118,517.4593Z"
                    transform="translate(-383.0057 -138.433)"
                    fill="#fff"
                />
                <path
                    d="M1201.8217,552.3815a111.177,111.177,0,0,0-2.8976-14.6043c-.7695-2.9775-1.73-6.3112-2.9213-9.9057-6.7507-20.3609-20.936-49.088-50.053-68.8329-38.2533-25.94-82.7856,30.9784-99.3,69.2024-1.1455,2.6515-2.1563,5.2131-3.0207,7.6509-2.8331,7.9892-4.0951,14.648-3.383,18.7832C1040.2465,554.6751,1121.2841,583.0725,1201.8217,552.3815Z"
                    transform="translate(-383.0057 -138.433)"
                    fill="url(#e11ac3ef-b635-4cf1-b1fe-0614c356a6ce)"
                />
                <polygon
                    points="822.222 367.506 806.652 416.286 826.546 450.821 863.775 406.801 846.985 369.624 822.222 367.506"
                    fill="#fff"
                />
                <polygon
                    points="652.012 369.922 668.96 418.24 650.054 453.326 611.591 410.381 627.319 372.742 652.012 369.922"
                    fill="#fff"
                />
                <polygon
                    points="621.436 386.822 660.951 433.103 648.276 453.351 611.591 410.381 621.436 386.822"
                    fill="#c7abc4"
                />
                <path
                    d="M1124.478,452.5078s38.2243,18.3054,43.9245,88.621l15.5461-6.1008S1174.7545,464.3928,1124.478,452.5078Z"
                    transform="translate(-383.0057 -138.433)"
                    fill="url(#ec99a72c-a6e6-43e8-b163-f9880e59408c)"
                />
                <polygon
                    points="853.266 383.531 811.212 427.189 822.136 456.857 863.775 406.801 853.266 383.531"
                    fill="#c7abc4"
                />
                <path
                    d="M1043.2417,527.0047s72.119,44.53,154.8006-2.1974l13.6189,76.3122-89.7855,17.3744-90.3935-12.9447S1030.3389,572.7418,1043.2417,527.0047Z"
                    transform="translate(-383.0057 -138.433)"
                    fill="#fff"
                />
                <path
                    d="M1166.7649,538.6035s16.1459,50.2259-12.7691,73.6748l57.6654-11.1588-13.6189-76.3122Z"
                    transform="translate(-383.0057 -138.433)"
                    fill="#c7abc4"
                />
                <path
                    d="M1062.7218,637.1909c9.5112,7.7177,25.4378,5.5228,30.37-6.2892,3.5648-8.5374-1.6323-14.3207-6.46-20.7989a61.7136,61.7136,0,0,0-10.4233-11.1719c-6.6958-5.4307-20.7623-11.4172-28.5625-4.1277C1047.6441,594.805,1030.3765,610.9437,1062.7218,637.1909Z"
                    transform="translate(-383.0057 -138.433)"
                    fill="#b4a0b6"
                />
                <path
                    d="M1174.9407,635.598c-9.2883,7.9845-25.2707,6.2425-30.5361-5.4247-3.8057-8.4328,1.2252-14.3613,5.8668-20.9738a61.7061,61.7061,0,0,1,10.102-11.4633c6.5388-5.6187,20.43-12.002,28.4338-4.9368C1188.8092,592.8012,1206.5279,608.4431,1174.9407,635.598Z"
                    transform="translate(-383.0057 -138.433)"
                    fill="#b4a0b6"
                />
                <polygon
                    points="685.503 461.846 669.75 473.927 672.356 478.295 685.503 461.846"
                    fill="#828ac3"
                />
                <polygon
                    points="693.501 469.863 677.748 481.945 680.354 486.312 693.501 469.863"
                    fill="#828ac3"
                />
                <polygon
                    points="701.576 477.88 685.824 489.961 688.429 494.329 701.576 477.88"
                    fill="#828ac3"
                />
                <polygon
                    points="786.629 459.232 802.717 470.861 800.237 475.301 786.629 459.232"
                    fill="#828ac3"
                />
                <polygon
                    points="778.861 467.473 794.95 479.103 792.47 483.542 778.861 467.473"
                    fill="#828ac3"
                />
                <polygon
                    points="771.069 479.434 787.158 491.064 784.678 495.504 771.069 479.434"
                    fill="#828ac3"
                />
                <path
                    d="M1088.5451,488.5289a9.2577,9.2577,0,0,1,12.8629,1.843S1097.9158,475.9821,1088.5451,488.5289Z"
                    transform="translate(-383.0057 -138.433)"
                />
                <path
                    d="M1134.9713,489.3863a9.2577,9.2577,0,0,0-12.8415,1.9871S1125.4606,476.9453,1134.9713,489.3863Z"
                    transform="translate(-383.0057 -138.433)"
                />
                <path
                    d="M1143.249,495.654c1.2348,2.1579-3.41,5.1213-8.2845,6.0994s-5.3659-4.6284-1.9543-6.5807,9.2626-1.2245,10.2388.4813"
                    transform="translate(-383.0057 -138.433)"
                    fill="#f9bcb7"
                />
                <path
                    d="M1075.7316,494.0375c-1.1458,2.1411,3.4711,4.9057,8.2578,5.7255s5.1107-4.6677,1.7256-6.4793-9.0776-.9387-9.9834.7538"
                    transform="translate(-383.0057 -138.433)"
                    fill="#f9bcb7"
                />
                <path
                    d="M1048.6715,452.4011c-12.3366,18.3365-17.6178,40.2754-9.457,59.4378,15.9644,37.4861,73.9629,57.1121,114.7578,47.5527,20.1656-4.7254,34.1077-16.0848,43.1275-33.1688a71.8575,71.8575,0,0,0,7.85-25.06c6.6986-56.654-48.0523-107.35-111.8907-84.3757C1075.71,423.0308,1059.482,436.3328,1048.6715,452.4011Z"
                    transform="translate(-383.0057 -138.433)"
                    fill="#fff"
                    opacity="0.13"
                />
                <path
                    d="M1093.2665,433.2629s-20.5129,8.64-28.1773,31.0454S1093.2665,433.2629,1093.2665,433.2629Z"
                    transform="translate(-383.0057 -138.433)"
                    fill="#fff"
                />
                <path
                    d="M1061.9534,474.3287c.0053.3711-8.35,4.418-3.8928,6.5324C1061.3568,482.4247,1061.9749,475.85,1061.9534,474.3287Z"
                    transform="translate(-383.0057 -138.433)"
                    fill="#fff"
                />
            </g>
            <image
                width="512"
                height="512"
                transform="translate(771.2076 42.1278) scale(0.0858)"
                xlink:href="market_hub7.png"
            />
            <polygon
                points="849.12 18.886 534.719 18.886 477.044 98.473 535.429 168.032 849.12 168.032 849.12 18.886"
                opacity="0.38"
                fill="url(#aa602f27-ceb8-4e05-944e-6f7d8e78e5fd)"
            />
            <g>
                <text
                    id="btn-sign-up"
                    transform="translate(887.9982 174.5826)"
                    font-size="35.8384"
                    fill="#fff"
                    font-family="atmospheric, aAtmospheric, a Atmospheric"
                >
                    Sign up
                </text>
            </g>
            <polygon
                points="871.069 17.517 849.12 18.886 840.865 1 862.328 0.816 871.069 17.517"
                fill="#333132"
            />
            <g>
                <polygon
                    points="55.148 308.992 57.325 486.248 71.979 493.469 71.979 320.822 55.148 308.992"
                    fill="url(#f3523962-35ee-42a6-9a9b-366791823a99)"
                />
                <polygon
                    points="85.841 312.13 85.841 491.916 71.979 493.469 71.979 320.822 85.841 312.13"
                    fill="url(#f5113b5b-08f0-4e35-bca5-c2f520eb9013)"
                />
                <polygon
                    points="247.328 303.267 248.949 480.523 259.865 487.745 259.865 315.098 247.328 303.267"
                    fill="#333132"
                />
                <polygon
                    points="270.189 306.406 270.189 486.192 259.865 487.745 259.865 315.098 270.189 306.406"
                    fill="url(#edf2d66c-d265-4b98-b910-63b7a14b0215)"
                />
                <polygon
                    points="247.328 303.267 259.865 315.098 270.189 306.406 258.758 296.9 247.328 303.267"
                    fill="#665a44"
                />
                <polygon
                    points="54.994 309.147 71.994 321.096 85.994 312.317 67.994 299.9 54.994 309.147"
                    fill="#665a44"
                />
                <polygon
                    points="247.526 324.951 258.758 334.427 258.758 367.413 85.841 367.413 85.841 335.618 85.841 324.951 247.526 324.951"
                    fill="url(#f4964b9b-6271-4b9c-8297-798cf82416bb)"
                />
                <polygon
                    points="247.526 395.402 258.758 405.18 258.758 439.218 85.841 439.218 85.841 406.41 85.841 395.402 247.526 395.402"
                    fill="url(#aa5cdcba-2416-480e-8e3b-63b22197a941)"
                />
                <polygon
                    points="85.841 324.951 247.526 324.951 258.758 334.427 85.841 335.618 85.841 324.951"
                    fill="#333132"
                />
                <polygon
                    points="85.841 395.466 247.526 395.466 258.759 404.942 85.841 406.134 85.841 395.466"
                    fill="#333132"
                />
                <polygon
                    points="93.161 325.023 101.829 335.545 116.494 335.444 107.994 325.023 93.161 325.023"
                    fill="#ffe443"
                />
                <polygon
                    points="136.994 324.951 145.663 335.472 160.327 335.371 151.828 324.951 136.994 324.951"
                    fill="#ffe443"
                />
                <polygon
                    points="181.994 325.023 190.663 335.545 205.327 335.444 196.828 325.023 181.994 325.023"
                    fill="#ffe443"
                />
                <polygon
                    points="225.313 325.023 233.982 335.545 248.647 335.444 240.147 325.023 225.313 325.023"
                    fill="#ffe443"
                />
                <polygon
                    points="95.557 395.575 104.225 406.097 118.89 405.996 110.39 395.575 95.557 395.575"
                    fill="#ffe443"
                />
                <polygon
                    points="139.39 395.502 148.059 406.024 162.723 405.923 154.224 395.502 139.39 395.502"
                    fill="#ffe443"
                />
                <polygon
                    points="184.39 395.575 193.059 406.097 207.723 405.996 199.224 395.575 184.39 395.575"
                    fill="#ffe443"
                />
                <polygon
                    points="227.71 395.575 236.378 406.097 251.043 405.996 242.543 395.575 227.71 395.575"
                    fill="#ffe443"
                />
                <polygon
                    points="101.829 335.545 93.161 367.413 108.828 367.413 116.494 335.444 101.829 335.545"
                    fill="#db9815"
                />
                <polygon
                    points="233.982 335.545 225.313 367.413 240.98 367.413 248.647 335.444 233.982 335.545"
                    fill="#db9815"
                />
                <polygon
                    points="190.663 335.545 181.994 367.413 197.661 367.413 205.327 335.444 190.663 335.545"
                    fill="#db9815"
                />
                <polygon
                    points="145.663 335.545 136.994 367.413 152.661 367.413 160.327 335.444 145.663 335.545"
                    fill="#db9815"
                />
                <polygon
                    points="104.225 406.235 95.557 438.102 111.224 438.102 118.89 406.134 104.225 406.235"
                    fill="#db9815"
                />
                <polygon
                    points="236.378 406.235 227.71 438.102 243.376 438.102 251.043 406.134 236.378 406.235"
                    fill="#db9815"
                />
                <polygon
                    points="193.059 406.235 184.39 438.102 200.057 438.102 207.723 406.134 193.059 406.235"
                    fill="#db9815"
                />
                <polygon
                    points="148.059 406.235 139.39 438.102 155.057 438.102 162.723 406.134 148.059 406.235"
                    fill="#db9815"
                />
            </g>
        </g>
    </g>
</svg>
